<?xml version="1.0" encoding="UTF-8" standalone="no"?>
<!-- Created with Inkscape (http://www.inkscape.org/) -->

<svg
   xmlns:dc="http://purl.org/dc/elements/1.1/"
   xmlns:cc="http://creativecommons.org/ns#"
   xmlns:rdf="http://www.w3.org/1999/02/22-rdf-syntax-ns#"
   xmlns:svg="http://www.w3.org/2000/svg"
   xmlns="http://www.w3.org/2000/svg"
   xmlns:sodipodi="http://sodipodi.sourceforge.net/DTD/sodipodi-0.dtd"
   xmlns:inkscape="http://www.inkscape.org/namespaces/inkscape"
   width="210mm"
   height="297mm"
   viewBox="0 0 210 297"
   version="1.1"
   id="svg10805"
   inkscape:version="0.92.1 r"
   sodipodi:docname="community.svg">
  <defs
     id="defs10799" />
  <sodipodi:namedview
     id="base"
     pagecolor="#ffffff"
     bordercolor="#666666"
     borderopacity="1.0"
     inkscape:pageopacity="0.0"
     inkscape:pageshadow="2"
     inkscape:zoom="11.2"
     inkscape:cx="359.49882"
     inkscape:cy="577.91678"
     inkscape:document-units="mm"
     inkscape:current-layer="layer1"
     showgrid="false"
     inkscape:window-width="1447"
     inkscape:window-height="825"
     inkscape:window-x="13"
     inkscape:window-y="47"
     inkscape:window-maximized="0" />
  <metadata
     id="metadata10802">
    <rdf:RDF>
      <cc:Work
         rdf:about="">
        <dc:format>image/svg+xml</dc:format>
        <dc:type
           rdf:resource="http://purl.org/dc/dcmitype/StillImage" />
        <dc:title></dc:title>
      </cc:Work>
    </rdf:RDF>
  </metadata>
  <g
     inkscape:label="Layer 1"
     inkscape:groupmode="layer"
     id="layer1">
    <path
       style="display:inline;overflow:visible;fill:#babdb6;fill-opacity:1;stroke:none;stroke-width:0.26458332"
       d="m 82.372824,154.73567 c -0.1997,0.29559 -0.314193,0.64995 -0.314193,1.03353 0,1.02287 0.829207,1.85208 1.852083,1.85208 1.022877,0 1.852084,-0.82921 1.852084,-1.85208 0,-0.38358 -0.114494,-0.73794 -0.314193,-1.03353 -0.05263,0.0359 -0.1123,0.0663 -0.165365,0.0909 -0.224946,0.10426 -0.490669,0.14883 -0.777213,0.14883 h -1.190625 c -0.286544,0 -0.552268,-0.0446 -0.777214,-0.14883 -0.05307,-0.0246 -0.112731,-0.055 -0.165364,-0.0909 z m 1.008724,0.50436 c 0.147724,0 0.272851,0.12513 0.272851,0.27285 v 0.25632 c 0,0.14772 -0.125127,0.26458 -0.272851,0.26458 -0.147725,0 -0.264584,-0.11686 -0.264584,-0.26458 v -0.25632 c 0,-0.14772 0.116859,-0.27285 0.264584,-0.27285 z m 1.058333,0 c 0.147725,0 0.264583,0.12513 0.264583,0.27285 v 0.25632 c 0,0.14772 -0.116858,0.26458 -0.264583,0.26458 -0.147725,0 -0.264583,-0.11686 -0.264583,-0.26458 v -0.25632 c 0,-0.14772 0.116858,-0.27285 0.264583,-0.27285 z m -1.852083,0.81028 c 0.189259,0.28427 0.591404,0.51264 1.322916,0.51264 0.64883,0 1.114113,-0.19855 1.322917,-0.51264 v 0.1323 c 0,0.18017 -0.221694,0.63665 -1.322917,0.63665 -1.026808,0 -1.322916,-0.49576 -1.322916,-0.63665 z"
       id="path86756"
       inkscape:connector-curvature="0"
       sodipodi:nodetypes="cssscsssscsssssssssssssscscsssc" />
    <path
       style="color:#000000;font-style:normal;font-variant:normal;font-weight:normal;font-stretch:normal;font-size:medium;line-height:normal;font-family:sans-serif;font-variant-ligatures:normal;font-variant-position:normal;font-variant-caps:normal;font-variant-numeric:normal;font-variant-alternates:normal;font-feature-settings:normal;text-indent:0;text-align:start;text-decoration:none;text-decoration-line:none;text-decoration-style:solid;text-decoration-color:#000000;letter-spacing:normal;word-spacing:normal;text-transform:none;writing-mode:lr-tb;direction:ltr;text-orientation:mixed;dominant-baseline:auto;baseline-shift:baseline;text-anchor:start;white-space:normal;shape-padding:0;clip-rule:nonzero;display:inline;overflow:visible;visibility:visible;opacity:1;isolation:auto;mix-blend-mode:normal;color-interpolation:sRGB;color-interpolation-filters:linearRGB;solid-color:#000000;solid-opacity:1;vector-effect:none;fill:#babdb6;fill-opacity:1;fill-rule:nonzero;stroke:none;stroke-width:0.26458332;stroke-linecap:butt;stroke-linejoin:miter;stroke-miterlimit:4;stroke-dasharray:none;stroke-dashoffset:0;stroke-opacity:1;marker:none;color-rendering:auto;image-rendering:auto;shape-rendering:auto;text-rendering:auto;enable-background:accumulate"
       d="m 83.3125,153.65234 c -0.253635,0 -0.48395,0.0463 -0.662109,0.12891 -0.17816,0.0826 -0.328125,0.21386 -0.328125,0.40039 0,0.18653 0.149965,0.31781 0.328125,0.40039 0.178159,0.0826 0.408474,0.12891 0.662109,0.12891 h 1.197266 c 0.253635,0 0.483949,-0.0463 0.662109,-0.12891 0.17816,-0.0826 0.326172,-0.21386 0.326172,-0.40039 0,-0.18653 -0.148012,-0.31781 -0.326172,-0.40039 -0.17816,-0.0826 -0.408474,-0.12891 -0.662109,-0.12891 z m 0,0.26563 h 1.197266 c 0.220725,0 0.419408,0.0426 0.550781,0.10351 0.131373,0.0609 0.173828,0.12682 0.173828,0.16016 0,0.0333 -0.04246,0.0993 -0.173828,0.16016 -0.131373,0.0609 -0.330056,0.10351 -0.550781,0.10351 H 83.3125 c -0.220725,0 -0.419408,-0.0426 -0.550781,-0.10351 -0.131374,-0.0609 -0.173828,-0.12682 -0.173828,-0.16016 0,-0.0333 0.04245,-0.0993 0.173828,-0.16016 0.131373,-0.0609 0.330056,-0.10351 0.550781,-0.10351 z"
       id="rect86760"
       inkscape:connector-curvature="0" />
    <path
       style="display:inline;overflow:visible;fill:#babdb6;fill-opacity:1;stroke:none;stroke-width:0.26458332"
       d="m 90.978904,153.41826 c -1.022877,0 -1.852083,0.82921 -1.852083,1.85208 0,1.02288 0.829206,1.85209 1.852083,1.85209 1.022876,0 1.852083,-0.82921 1.852083,-1.85209 0,-1.02287 -0.829207,-1.85208 -1.852083,-1.85208 z m -1.058333,1.09141 c 0,0 0.12538,0.22191 0.330729,0.22324 h 0.463021 v 0.27285 c 0,0.14715 -0.176433,0.26458 -0.396875,0.26458 -0.220438,0 -0.396875,-0.11743 -0.396875,-0.26458 z m 2.116666,0 v 0.49609 c 0,0.14715 -0.176437,0.26458 -0.396875,0.26458 -0.220443,0 -0.396875,-0.11743 -0.396875,-0.26458 v -0.27285 h 0.454753 c 0.205348,-0.001 0.338997,-0.22324 0.338997,-0.22324 z m -1.050065,1.02526 c 0.861444,0 0.79375,0.10155 0.79375,0.20151 v 0.0704 h -1.595768 v -0.0763 c 0,-0.0925 -0.05943,-0.19567 0.802018,-0.19567 z"
       id="path87316"
       inkscape:connector-curvature="0"
       sodipodi:nodetypes="ssssscccsssccssscccssccss" />
    <path
       id="path5253"
       d="m 90.997768,159.78519 c -1.022876,0 -1.852083,0.82921 -1.852083,1.85209 0,1.02287 0.829207,1.85208 1.852083,1.85208 1.022877,0 1.852083,-0.82921 1.852083,-1.85208 0,-1.02288 -0.829206,-1.85209 -1.852083,-1.85209 z m -0.529167,1.05834 c 0.147725,0 0.272852,0.12512 0.272852,0.27285 v 0.25631 c 0,0.14773 -0.125127,0.26459 -0.272852,0.26459 -0.147724,0 -0.264583,-0.11686 -0.264583,-0.26459 v -0.25631 c 0,-0.14773 0.116859,-0.27285 0.264583,-0.27285 z m 1.058334,0 c 0.147724,0 0.264583,0.12512 0.264583,0.27285 v 0.25631 c 0,0.14773 -0.116859,0.26459 -0.264583,0.26459 -0.147725,0 -0.264584,-0.11686 -0.264584,-0.26459 v -0.25631 c 0,-0.14773 0.116859,-0.27285 0.264584,-0.27285 z m -1.852084,1.0768 c 0.263674,0.16851 1.062694,0.24269 1.322917,0.24269 0.260223,0 1.006626,0.0135 1.322917,-0.24269 v 0.13229 c 0,0.18018 -0.461473,0.37156 -1.322917,0.37156 -0.861444,0 -1.322917,-0.23066 -1.322917,-0.37156 z"
       style="display:inline;overflow:visible;fill:#babdb6;fill-opacity:1;stroke:none;stroke-width:0.26458332"
       inkscape:connector-curvature="0"
       sodipodi:nodetypes="sssssssssssssssssssczcczsc" />
    <path
       id="path71360-4"
       d="m 101.29762,163.94293 c -1.02288,0 -1.852084,0.82921 -1.852084,1.85208 0,1.02288 0.829204,1.85209 1.852084,1.85209 1.02288,0 1.85208,-0.82921 1.85208,-1.85209 0,-1.02287 -0.8292,-1.85208 -1.85208,-1.85208 z m -0.52917,1.05833 c 0.14773,0 0.27285,0.12513 0.27285,0.27286 v 0.25631 c 0,0.14773 -0.12512,0.26458 -0.27285,0.26458 -0.14772,0 -0.26458,-0.11685 -0.26458,-0.26458 v -0.25631 c 0,-0.14773 0.11686,-0.27286 0.26458,-0.27286 z m 1.05834,0 c 0.14772,0 0.26458,0.12513 0.26458,0.27286 v 0.25631 c 0,0.14773 -0.11686,0.26458 -0.26458,0.26458 -0.14773,0 -0.26459,-0.11685 -0.26459,-0.26458 v -0.25631 c 0,-0.14773 0.11686,-0.27286 0.26459,-0.27286 z m -0.52917,1.21543 c 0.28025,0 0.51042,0.24371 0.51263,0.53744 0,0.29538 -0.23081,0.53743 -0.51263,0.53743 -0.28182,0 -0.51263,-0.24205 -0.51263,-0.53743 0,-0.29538 0.23081,-0.53744 0.51263,-0.53744 z"
       style="display:inline;fill:#babdb6;fill-opacity:1;stroke:none;stroke-width:0.26458332"
       inkscape:connector-curvature="0" />
    <path
       inkscape:connector-curvature="0"
       style="display:inline;fill:#babdb6;fill-opacity:1;stroke:none;stroke-width:0.26458332"
       d="m 107.39249,154.21004 c -1.02288,0 -1.85209,0.82921 -1.85209,1.85209 0,1.02287 0.82921,1.85208 1.85209,1.85208 1.02287,0 1.85208,-0.82921 1.85208,-1.85208 0,-1.02288 -0.82921,-1.85209 -1.85208,-1.85209 z m -0.52917,1.05834 c 0.14772,0 0.27285,0.12512 0.27285,0.27285 v 0.25631 c 0,0.14773 -0.12513,0.26459 -0.27285,0.26459 -0.14773,0 -0.26458,-0.11686 -0.26458,-0.26459 v -0.25631 c 0,-0.14773 0.11685,-0.27285 0.26458,-0.27285 z m 1.05833,0 c 0.14773,0 0.26459,0.12512 0.26459,0.27285 v 0.25631 c 0,0.14773 -0.11686,0.26459 -0.26459,0.26459 -0.14772,0 -0.26458,-0.11686 -0.26458,-0.26459 v -0.25631 c 0,-0.14773 0.11686,-0.27285 0.26458,-0.27285 z m -1.85208,1.0666 c 0.52917,0.34487 2.11324,0.34487 2.6541,0 l -0.008,0.14056 c -0.01,0.11369 -0.26458,0.89297 -1.32291,0.90124 -1.05833,0.008 -1.32292,-0.73555 -1.32292,-0.87644 z"
       id="path10549" />
    <path
       style="display:inline;fill:#babdb6;fill-opacity:1;stroke:none;stroke-width:0.26458332"
       d="m 107.109,148.44591 c -1.02287,0 -1.85208,0.8292 -1.85208,1.85208 0,1.02288 0.82921,1.85208 1.85208,1.85208 1.02288,0 1.85209,-0.8292 1.85209,-1.85208 0,-1.02288 -0.82921,-1.85208 -1.85209,-1.85208 z m -0.52916,1.05833 c 0.14772,0 0.27285,0.12513 0.27285,0.27285 v 0.25632 c 0,0.14772 -0.12513,0.26458 -0.27285,0.26458 -0.14773,0 -0.26459,-0.11686 -0.26459,-0.26458 v -0.25632 c 0,-0.14772 0.11686,-0.27285 0.26459,-0.27285 z m 0.9095,0.26458 h 0.23978 c 0.13822,0 0.25632,0.0572 0.25632,0.1323 0,0.0751 -0.1181,0.13229 -0.25632,0.13229 h -0.23978 c -0.13822,0 -0.24805,-0.0572 -0.24805,-0.13229 0,-0.0751 0.10983,-0.1323 0.24805,-0.1323 z m -1.70325,0.81029 c 0.18926,0.28427 0.5914,0.51263 1.32291,0.51263 0.64883,0 1.11412,-0.19855 1.32292,-0.51263 v 0.13229 c 0,0.18018 -0.22169,0.63666 -1.32292,0.63666 -1.02681,0 -1.32291,-0.49576 -1.32291,-0.63666 z"
       id="path4734"
       inkscape:connector-curvature="0" />
    <path
       style="display:inline;overflow:visible;fill:#babdb6;fill-opacity:1;stroke:none;stroke-width:0.26458332"
       d="m 102.80952,158.41503 c -1.02287,0 -1.85208,0.82921 -1.85208,1.85208 0,1.02288 0.82921,1.85209 1.85208,1.85209 1.02288,0 1.85209,-0.82921 1.85209,-1.85209 0,-1.02287 -0.82921,-1.85208 -1.85209,-1.85208 z m -0.52916,1.05833 c 0.14772,0 0.27285,0.12513 0.27285,0.27285 v 0.25632 c 0,0.14772 -0.12513,0.26458 -0.27285,0.26458 -0.14773,0 -0.26459,-0.11686 -0.26459,-0.26458 v -0.25632 c 0,-0.14772 0.11686,-0.27285 0.26459,-0.27285 z m 1.05833,0 c 0.14773,0 0.26458,0.12513 0.26458,0.27285 v 0.25632 c 0,0.14772 -0.11685,0.26458 -0.26458,0.26458 -0.14772,0 -0.26458,-0.11686 -0.26458,-0.26458 v -0.25632 c 0,-0.14772 0.11686,-0.27285 0.26458,-0.27285 z m -1.71979,1.32292 h 2.38125 c 0.0733,0 0.13229,0.059 0.13229,0.13229 0,0.0733 -0.059,0.13229 -0.13229,0.13229 h -2.38125 c -0.0733,0 -0.13229,-0.059 -0.13229,-0.13229 0,-0.0733 0.059,-0.13229 0.13229,-0.13229 z"
       id="path4930"
       inkscape:connector-curvature="0" />
    <path
       inkscape:connector-curvature="0"
       id="path5619-4"
       d="m 87.497444,167.58095 c -0.437134,0 -0.840764,0.15187 -1.157552,0.40515 -0.299995,-0.11744 -0.553889,-0.25113 -0.711068,-0.38861 l -0.02479,0.1571 c -0.0088,0.0717 0.02731,0.40032 0.305924,0.7276 -0.167142,0.27827 -0.264583,0.60261 -0.264583,0.95085 0,1.02287 0.829207,1.85208 1.852083,1.85208 1.022877,0 1.852084,-0.82921 1.852084,-1.85208 0,-0.34149 -0.09513,-0.65965 -0.256316,-0.93431 0.267494,-0.3223 0.314635,-0.63221 0.305925,-0.7028 l -0.02479,-0.1571 c -0.153109,0.13392 -0.396515,0.25691 -0.686263,0.37207 -0.0016,-0.001 -0.0068,0.001 -0.0083,0 -0.321487,-0.2686 -0.730763,-0.42995 -1.182391,-0.42995 z m -0.529167,1.05834 c 0.147725,0 0.272852,0.12512 0.272852,0.27285 v 0.25631 c 0,0.14773 -0.125127,0.26459 -0.272852,0.26459 -0.147725,0 -0.264583,-0.11686 -0.264583,-0.26459 v -0.25631 c 0,-0.14773 0.116858,-0.27285 0.264583,-0.27285 z m 1.058334,0 c 0.147724,0 0.264583,0.12512 0.264583,0.27285 v 0.25631 c 0,0.14773 -0.116859,0.26459 -0.264583,0.26459 -0.147725,0 -0.264584,-0.11686 -0.264584,-0.26459 v -0.25631 c 0,-0.14773 0.116859,-0.27285 0.264584,-0.27285 z m 0.529166,1.31713 c -0.0077,0.0909 -0.244763,0.7946 -1.058333,0.79623 -0.737817,0.002 -1.058333,-0.67691 -1.058333,-0.78962 z"
       style="display:inline;fill:#babdb6;fill-opacity:1;stroke:none;stroke-width:0.26458332"
       sodipodi:nodetypes="sccccssscccccssssssssssssssscscc" />
    <path
       id="path4894"
       d="m 83.485491,161.76957 c -1.022876,0 -1.852083,0.8292 -1.852083,1.85208 0,1.02288 0.829207,1.85208 1.852083,1.85208 1.022877,0 1.852084,-0.8292 1.852084,-1.85208 0,-1.02288 -0.829207,-1.85208 -1.852084,-1.85208 z m -1.529622,1.0666 c 1.035198,-0.01 2.109163,-4e-5 3.059245,0 0,0.43445 -0.330653,0.78548 -0.735873,0.78548 -0.337441,0 -0.617154,-0.24621 -0.702799,-0.57877 h -0.181901 c -0.08565,0.33257 -0.365358,0.57877 -0.7028,0.57877 -0.40522,0 -0.735872,-0.35105 -0.735872,-0.78548 z m 0.206706,1.0666 c 0.189259,0.28427 0.591404,0.51263 1.322916,0.51263 0.64883,0 1.114113,-0.19854 1.322917,-0.51263 v 0.13229 c 0,0.18018 -0.221695,0.63666 -1.322917,0.63666 -1.026808,0 -1.322916,-0.49576 -1.322916,-0.63666 z"
       style="display:inline;overflow:visible;fill:#babdb6;fill-opacity:1;stroke:none;stroke-width:0.26458332"
       inkscape:connector-curvature="0" />
    <path
       style="display:inline;fill:#babdb6;fill-opacity:1;stroke:none;stroke-width:0.26458332"
       d="m 94.210566,165.2186 c -1.022877,0 -1.852084,0.82921 -1.852084,1.85208 0,1.02288 0.829207,1.85209 1.852084,1.85209 1.022876,0 1.852083,-0.82921 1.852083,-1.85209 0,-1.02287 -0.829207,-1.85208 -1.852083,-1.85208 z m -0.65319,0.98392 c 0.194302,0 0.388606,0.11801 0.388606,0.34727 -0.396875,-0.0896 -0.826823,0.4585 -0.79375,0 0.01654,-0.22926 0.210842,-0.34727 0.405144,-0.34727 z m 1.30638,0 c 0.194302,0 0.388607,0.11801 0.405143,0.34727 0.03307,0.4585 -0.396875,-0.0896 -0.79375,0 0,-0.22926 0.194305,-0.34727 0.388607,-0.34727 z m -1.976107,1.14102 c 0.529167,0.34487 2.113243,0.34487 2.654102,0 l -0.0083,0.14056 c -0.0096,0.11369 -0.264576,0.89296 -1.322912,0.90123 -1.058331,0.008 -1.322917,-0.73554 -1.322917,-0.87643 v -0.16536 z"
       id="path5785"
       inkscape:connector-curvature="0" />
    <path
       inkscape:connector-curvature="0"
       style="display:inline;fill:#babdb6;fill-opacity:1;stroke:none;stroke-width:0.26458332"
       d="m 92.273438,148.06793 c -1.022877,0 -1.852084,0.82921 -1.852084,1.85208 0,1.02288 0.829207,1.85209 1.852084,1.85209 1.022876,0 1.852083,-0.82921 1.852083,-1.85209 0,-1.02287 -0.829207,-1.85208 -1.852083,-1.85208 z m -0.529167,1.05833 c 0.147725,0 0.272852,0.12513 0.272852,0.27286 v 0.25631 c 0,0.14773 -0.125127,0.26458 -0.272852,0.26458 -0.147725,0 -0.264583,-0.11685 -0.264583,-0.26458 v -0.25631 c 0,-0.14773 0.116858,-0.27286 0.264583,-0.27286 z m 1.058333,0 c 0.147725,0 0.264584,0.12513 0.264584,0.27286 v 0.25631 c 0,0.14773 -0.116859,0.26458 -0.264584,0.26458 -0.147724,0 -0.264583,-0.11685 -0.264583,-0.26458 v -0.25631 c 0,-0.14773 0.116859,-0.27286 0.264583,-0.27286 z m -1.5875,1.05834 1.058334,0.26458 1.058333,-0.26458 c 0.02183,0.15623 -0.04255,0.27887 -0.17762,0.30899 l -0.351547,0.0879 0.346295,0.0866 c 0.189092,0.0507 0.182872,0.19822 0.182872,0.3103 l -1.058333,-0.26459 -1.058334,0.26459 c -0.01733,-0.16702 0.0099,-0.26015 0.137645,-0.299 l 0.391522,-0.0979 -0.397968,-0.0886 c -0.125547,-0.0339 -0.153196,-0.18023 -0.131199,-0.30823 z"
       id="path5954"
       sodipodi:nodetypes="sssssssssssssssssssccccccccccccc" />
    <path
       sodipodi:nodetypes="sssssssssssssssssssccsscc"
       inkscape:connector-curvature="0"
       id="path6081"
       d="m 83.674479,148.11518 c -1.022876,0 -1.852083,0.82921 -1.852083,1.85208 0,1.02288 0.829207,1.85208 1.852083,1.85208 1.022877,0 1.852084,-0.8292 1.852084,-1.85208 0,-1.02287 -0.829207,-1.85208 -1.852084,-1.85208 z m -0.529166,1.05833 c 0.147724,0 0.272851,0.12513 0.272851,0.27285 v 0.25632 c 0,0.14772 -0.125127,0.26458 -0.272851,0.26458 -0.147725,0 -0.264584,-0.11686 -0.264584,-0.26458 v -0.25632 c 0,-0.14772 0.116859,-0.27285 0.264584,-0.27285 z m 1.058333,0 c 0.147725,0 0.264583,0.12513 0.264583,0.27285 v 0.25632 c 0,0.14772 -0.116858,0.26458 -0.264583,0.26458 -0.147725,0 -0.264583,-0.11686 -0.264583,-0.26458 v -0.25632 c 0,-0.14772 0.116858,-0.27285 0.264583,-0.27285 z m -1.696604,0.71934 c 0.206222,0.87475 1.241679,1.17272 2.038694,0.86967 0.0019,0.15821 -0.05161,0.2903 -0.305445,0.34024 -0.572958,0.11274 -1.365467,-0.0377 -1.767417,-0.68614 -0.176239,-0.28434 -0.03361,-0.44586 0.03417,-0.5238 z"
       style="display:inline;fill:#babdb6;fill-opacity:1;stroke:none;stroke-width:0.26458332" />
    <path
       inkscape:connector-curvature="0"
       id="path6188"
       d="m 97.990328,145.98906 c -1.022877,0 -1.852084,0.82921 -1.852084,1.85209 0,1.02287 0.829207,1.85208 1.852084,1.85208 1.022876,0 1.852083,-0.82921 1.852083,-1.85208 0,-1.02288 -0.829207,-1.85209 -1.852083,-1.85209 z m -0.529167,1.05834 c 0.147725,0 0.272851,0.12512 0.272851,0.27285 v 0.25631 c 0,0.14773 -0.125126,0.26459 -0.272851,0.26459 -0.147725,0 -0.264583,-0.11686 -0.264583,-0.26459 v -0.25631 c 0,-0.14773 0.116858,-0.27285 0.264583,-0.27285 z m 1.058333,0 c 0.147725,0 0.264584,0.12512 0.264584,0.27285 v 0.25631 c 0,0.14773 -0.116859,0.26459 -0.264584,0.26459 -0.147725,0 -0.264583,-0.11686 -0.264583,-0.26459 v -0.25631 c 0,-0.14773 0.116858,-0.27285 0.264583,-0.27285 z m -1.852083,1.07487 c 0.263673,0.16851 1.062694,0.24804 1.322917,0.24804 0.130111,0 0.377989,0.004 0.636653,-0.0248 0.258665,-0.0286 0.528119,-0.0951 0.686263,-0.22324 v 0.13229 c 0,0.11681 -0.199334,0.24317 -0.570508,0.31419 l 0.06615,0.14056 c 0.07382,0.15963 0.02204,0.3375 -0.115755,0.40515 l -0.06615,0.0331 c -0.137805,0.0676 -0.310869,-0.008 -0.388607,-0.16537 l -0.165364,-0.33899 c -0.0045,-0.009 -0.005,-0.009 -0.0082,-0.0165 -0.02543,2.7e-4 -0.04824,0 -0.07441,0 -0.861444,0 -1.322917,-0.23118 -1.322917,-0.37207 v -0.13229 z"
       style="display:inline;fill:#babdb6;fill-opacity:1;stroke:none;stroke-width:0.26458332" />
    <path
       inkscape:connector-curvature="0"
       id="path6445"
       d="m 98.699033,152.17842 c -1.022877,0 -1.852083,0.82921 -1.852083,1.85209 0,1.02287 0.829206,1.85208 1.852083,1.85208 1.022876,0 1.852087,-0.82921 1.852087,-1.85208 0,-1.02288 -0.829211,-1.85209 -1.852087,-1.85209 z m -0.65319,0.79375 c 0.194302,0 0.388607,0.11801 0.388607,0.34727 -0.396875,-0.0896 -0.826823,0.45851 -0.79375,0 0.01654,-0.22926 0.210841,-0.34727 0.405143,-0.34727 z m 1.30638,0 c 0.194302,0 0.388607,0.11801 0.405143,0.34727 0.03307,0.45851 -0.396875,-0.0896 -0.79375,0 0,-0.22926 0.194305,-0.34727 0.388607,-0.34727 z m -0.65319,0.79375 c 0.365313,0 0.661458,0.35538 0.661458,0.79375 0,0.43838 -0.296145,0.79375 -0.661458,0.79375 -0.365313,0 -0.661458,-0.35537 -0.661458,-0.79375 0,-0.43837 0.296145,-0.79375 0.661458,-0.79375 z"
       style="display:inline;fill:#babdb6;fill-opacity:1;stroke:none;stroke-width:0.26458332" />
    <path
       id="path7221"
       d="m 110.03832,161.86406 c -1.02288,0 -1.85208,0.82921 -1.85208,1.85209 0,1.02287 0.8292,1.85208 1.85208,1.85208 1.02288,0 1.85208,-0.82921 1.85208,-1.85208 0,-1.02288 -0.8292,-1.85209 -1.85208,-1.85209 z m -0.65319,1.36969 c 0.1943,0 0.38861,0.11801 0.38861,0.34727 -0.39688,-0.0896 -0.82683,0.4585 -0.79375,0 0.0165,-0.22926 0.21084,-0.34727 0.40514,-0.34727 z m 1.30638,0 c 0.1943,0 0.38861,0.11801 0.40514,0.34727 0.0331,0.4585 -0.39687,-0.0896 -0.79375,0 0,-0.22926 0.19431,-0.34727 0.38861,-0.34727 z m -1.58726,0.67682 c 0.10979,0 0.19844,0.0887 0.19844,0.19844 0,0.10978 -0.0887,0.19843 -0.19844,0.19843 -0.10978,0 -0.19844,-0.0887 -0.19844,-0.19843 0,-0.10979 0.0887,-0.19844 0.19844,-0.19844 z m 1.85644,0 c 0.10979,0 0.19844,0.0887 0.19844,0.19844 0,0.10978 -0.0887,0.19843 -0.19844,0.19843 -0.10978,0 -0.19843,-0.0887 -0.19843,-0.19843 0,-0.10979 0.0887,-0.19844 0.19843,-0.19844 z m -1.08218,0.59862 h 0.31005 c 0.0546,0 0.1447,0.059 0.1447,0.13229 0,0.0733 -0.0901,0.13642 -0.1447,0.13642 h -0.31005 c -0.0546,0 -0.12816,-0.0631 -0.12816,-0.13642 0,-0.0733 0.0736,-0.13229 0.12816,-0.13229 z"
       style="display:inline;fill:#babdb6;fill-opacity:1;stroke:none;stroke-width:0.26458332"
       inkscape:connector-curvature="0"
       sodipodi:nodetypes="sssssscsssscssssssssssssssssss" />
    <path
       id="path7113"
       d="m 97.045387,157.32835 c -1.022876,0 -1.852083,0.8292 -1.852083,1.85208 0,1.02288 0.829207,1.85208 1.852083,1.85208 1.022877,0 1.852084,-0.8292 1.852084,-1.85208 0,-1.02288 -0.829207,-1.85208 -1.852084,-1.85208 z m -0.975651,0.97565 c 0.01106,7.9e-4 0.0222,0.002 0.03307,0.008 l 0.297657,0.17364 0.305924,-0.17364 c 0.04376,-0.0243 0.09006,-0.006 0.107487,0.0413 0.01744,0.0469 -0.0058,0.10801 -0.04961,0.13229 l -0.190169,0.10748 0.190169,0.10749 c 0.04345,0.0248 0.05938,0.0773 0.04134,0.12402 -0.01807,0.0467 -0.06404,0.0579 -0.107487,0.0331 l -0.297656,-0.16537 -0.305925,0.16537 c -0.04376,0.0243 -0.09005,0.0138 -0.107487,-0.0331 -0.01744,-0.0469 0.0058,-0.10801 0.04961,-0.13229 l 0.181901,-0.10748 -0.181901,-0.0992 c -0.04345,-0.0248 -0.06764,-0.0856 -0.04961,-0.13229 0.01355,-0.035 0.04958,-0.053 0.08268,-0.0496 z m 1.364258,0 c 0.01106,7.9e-4 0.0222,0.002 0.03307,0.008 l 0.297656,0.17364 0.305925,-0.17364 c 0.04377,-0.0243 0.09006,-0.006 0.107487,0.0413 0.01744,0.0469 -0.0059,0.10801 -0.04961,0.13229 l -0.190169,0.10748 0.190169,0.10749 c 0.04345,0.0248 0.06764,0.0773 0.04961,0.12402 -0.01807,0.0467 -0.07231,0.0579 -0.115755,0.0331 l -0.297657,-0.17364 -0.305924,0.17364 c -0.04377,0.0243 -0.09005,0.0138 -0.107487,-0.0331 -0.01744,-0.0469 0.0058,-0.10801 0.04961,-0.13229 l 0.19017,-0.10748 -0.19017,-0.10749 c -0.04345,-0.0248 -0.06764,-0.0773 -0.04961,-0.12402 0.01355,-0.035 0.04958,-0.053 0.08268,-0.0496 z m -1.149284,1.14928 c 0.159758,-0.0143 0.335442,0.0241 0.496094,0.14056 0.09239,0.0582 0.109135,0.0724 0.264583,0.091 0.04214,0.0147 0.160618,-0.0109 0.264584,-0.091 0.07426,-0.0541 0.148505,-0.0782 0.223242,-0.0992 0.346411,-0.0973 0.681056,0.11542 0.835091,0.33073 v 0.1323 c -0.135276,-0.0756 -0.280598,-0.15822 -0.429948,-0.20671 l 0.124024,0.24805 c 0.08675,0.17129 0.03499,0.37014 -0.115756,0.44648 -0.150746,0.0763 -0.343196,-0.002 -0.429947,-0.17363 l -0.157097,-0.30593 c -0.01349,-0.0267 -0.01786,-0.0552 -0.02479,-0.0827 -0.007,0.003 -0.01876,0.007 -0.02479,0.008 -0.14328,0.083 -0.41257,0.052 -0.529166,0 -0.242599,-0.11567 -0.240541,-0.17657 -0.405144,-0.1819 -0.225536,0.005 -0.487722,0.10552 -0.65319,0.24805 v -0.13229 c 0.06972,-0.17956 0.295976,-0.34832 0.56224,-0.37207 z"
       style="display:inline;overflow:visible;fill:#babdb6;fill-opacity:1;stroke:none;stroke-width:0.26458332"
       inkscape:connector-curvature="0" />
    <path
       inkscape:connector-curvature="0"
       id="path9123"
       d="m 88.074358,142.18923 c -0.324712,0.19416 -0.281085,0.43192 -0.239778,0.53743 -0.478179,0.071 -0.938948,0.34693 -1.091406,0.84336 -0.075,-0.056 -0.155567,-0.0909 -0.248047,-0.0909 -0.27354,0 -0.496094,0.28646 -0.496094,0.62839 0,0.34192 0.222554,0.62011 0.496094,0.62011 0.123473,0 0.234352,-0.056 0.322461,-0.14882 0.719402,-0.33698 1.876562,-0.38795 2.61276,0.008 0.08457,0.0853 0.188151,0.14056 0.305925,0.14056 0.273539,0 0.496093,-0.2782 0.496093,-0.62012 0,-0.34193 -0.222554,-0.62839 -0.496093,-0.62839 -0.113345,0 -0.214607,0.0511 -0.297657,0.13229 -0.134263,-0.45032 -0.486775,-0.76999 -1.008724,-0.86816 -0.04507,-0.169 -0.07523,-0.50691 0.429948,-0.47129 -0.574008,-0.20985 -0.719336,0.42994 -0.719336,0.42994 -0.07025,-0.031 -0.255421,-0.16888 -0.06615,-0.51263 z m -0.363802,1.33118 c 0.10051,0 0.19017,0.17102 0.19017,0.38861 0,0.21759 -0.08966,0.39687 -0.19017,0.39687 -0.10051,0 -0.173632,-0.17928 -0.173632,-0.39687 0,-0.21759 0.07312,-0.38861 0.173632,-0.38861 z m 0.79375,0 c 0.10051,0 0.19017,0.17102 0.19017,0.38861 0,0.21759 -0.08966,0.39687 -0.19017,0.39687 -0.10051,0 -0.173632,-0.17928 -0.173632,-0.39687 0,-0.21759 0.07312,-0.38861 0.173632,-0.38861 z m -1.976106,0.23978 c 0.0677,0 0.125402,0.0395 0.173632,0.0909 -0.0088,0.13999 -0.0049,0.29588 0.03307,0.46302 -0.05071,0.0777 -0.119615,0.13229 -0.206705,0.13229 -0.151279,0 -0.272852,-0.1499 -0.272852,-0.33899 0,-0.1891 0.121573,-0.34727 0.272852,-0.34727 z m 3.183268,0 c 0.151294,0 0.28112,0.15815 0.28112,0.34727 0,0.18911 -0.129826,0.33899 -0.28112,0.33899 -0.09855,0 -0.174416,-0.0693 -0.223242,-0.16536 0.01455,-0.127 0.0097,-0.24742 0,-0.3638 0.04968,-0.0927 0.128143,-0.1571 0.223242,-0.1571 z"
       style="display:inline;fill:#babdb6;fill-opacity:1;stroke:none;stroke-width:0.26458332" />
    <path
       style="color:#000000;display:inline;overflow:visible;visibility:visible;fill:#babdb6;fill-opacity:1;fill-rule:nonzero;stroke:none;stroke-width:0.26458332;marker:none;enable-background:new"
       d="m 88.107431,144.55394 c -1.026588,0 -1.860351,0.4146 -1.860351,0.92604 0,0.51144 0.833763,0.92604 1.860351,0.92604 1.026589,0 1.860352,-0.4146 1.860352,-0.92604 0,-0.51144 -0.833763,-0.92604 -1.860352,-0.92604 z m -1.314648,0.5457 c 0,0 0.09709,0.53744 1.314648,0.53744 1.160627,0 1.347722,-0.52917 1.347722,-0.52917 0,0 -0.01045,0.78756 -1.347722,0.77722 -1.362101,-0.0105 -1.314648,-0.78549 -1.314648,-0.78549 z"
       id="path8939"
       inkscape:connector-curvature="0"
       sodipodi:nodetypes="ssssscscsc" />
    <path
       style="display:inline;overflow:visible;fill:#babdb6;fill-opacity:1;stroke:none;stroke-width:0.26458332"
       d="m 96.903646,141.31161 c -0.738449,0 -1.37274,0.43311 -1.670182,1.05833 h 0.677995 c 0.0927,-0.15453 0.262538,-0.25631 0.454752,-0.25631 0.149699,0 0.283808,0.0644 0.380339,0.16536 0.05309,-0.035 0.109109,-0.0413 0.148828,-0.0413 0.04382,0 0.10428,0.006 0.157096,0.0413 0.09653,-0.10092 0.23064,-0.16536 0.380339,-0.16536 0.192214,0 0.36205,0.10178 0.454752,0.25631 h 0.686263 c -0.297442,-0.62522 -0.931733,-1.05833 -1.670182,-1.05833 z m -0.537435,1.0666 c -0.148868,0 -0.264583,0.11571 -0.264583,0.26458 v 0.25632 c 0,0.14886 0.115715,0.26458 0.264583,0.26458 0.148868,0 0.264583,-0.11572 0.264583,-0.26458 v -0.25632 c 0,-0.14887 -0.115715,-0.26458 -0.264583,-0.26458 z m 1.066602,0 c -0.148868,0 -0.264584,0.11571 -0.264584,0.26458 v 0.25632 c 0,0.14886 0.115716,0.26458 0.264584,0.26458 0.148867,0 0.264583,-0.11572 0.264583,-0.26458 v -0.25632 c 0,-0.14887 -0.115716,-0.26458 -0.264583,-0.26458 z m -0.537435,0.2067 c 2.64e-4,0.002 -0.0085,0.006 -0.0083,0.008 0.0016,0.0165 0.0083,0.0327 0.0083,0.0496 v 0.25632 c 0,0.29087 -0.238297,0.52916 -0.529167,0.52916 -0.29087,0 -0.529167,-0.23829 -0.529167,-0.52916 v -0.25632 c 0,-0.003 -4.2e-5,-0.005 0,-0.008 h -0.711067 c -0.04938,0.16686 -0.07441,0.3463 -0.07441,0.52917 0,1.02288 0.829206,1.85208 1.852083,1.85208 1.022877,0 1.852083,-0.8292 1.852083,-1.85208 0,-0.18287 -0.02503,-0.36231 -0.07441,-0.52917 h -0.719336 c 4.3e-5,0.003 0,0.005 0,0.008 v 0.25633 c 0,0.29087 -0.238297,0.52916 -0.529166,0.52916 -0.29087,0 -0.529167,-0.23829 -0.529167,-0.52916 v -0.25632 c 0,-0.0111 -7.94e-4,-0.0221 0,-0.0331 -2.65e-4,-0.006 -2.65e-4,-0.011 0,-0.0165 -0.0029,-0.003 -0.0056,-0.005 -0.0083,-0.008 z m -1.314649,1.12448 c 0.263674,0.16852 1.062694,0.24805 1.322917,0.24805 0.260223,0 1.006626,0.008 1.322917,-0.24805 v 0.13229 c 0,0.18018 -0.461473,0.37208 -1.322917,0.37208 -0.861444,0 -1.322917,-0.23118 -1.322917,-0.37208 z"
       id="path8527"
       inkscape:connector-curvature="0"
       sodipodi:nodetypes="sccscscsccsssssssssssssssccsssssccsssccsssssccccscsssc" />
    <path
       d="m 109.38631,169.73847 c 0,-0.54899 -0.44647,-0.99403 -0.99728,-0.99403 -0.36283,0 -0.68031,0.19316 -0.85478,0.48191 -0.17447,-0.28875 -0.492,-0.48191 -0.85483,-0.48191 -0.55082,0 -0.99728,0.44504 -0.99728,0.99403 0,0.28567 0.12112,0.54303 0.31473,0.72434 h -2.6e-4 l 1.51475,1.4542 1.56069,-1.4542 h -5.3e-4 c 0.19364,-0.18128 0.31468,-0.43864 0.31468,-0.72434"
       id="path4"
       inkscape:connector-curvature="0"
       sodipodi:nodetypes="cscsscccccc"
       style="display:inline;fill:#bebebe;fill-opacity:1;stroke:none;stroke-width:0.26458332;enable-background:new" />
    <path
       sodipodi:type="star"
       style="color:#000000;display:inline;overflow:visible;visibility:visible;fill:#bebebe;fill-opacity:1;fill-rule:nonzero;stroke:none;stroke-width:2;marker:none;enable-background:accumulate"
       id="path11922"
       sodipodi:sides="5"
       sodipodi:cx="526.88293"
       sodipodi:cy="180.96373"
       sodipodi:r1="7.0383992"
       sodipodi:r2="3.8276224"
       sodipodi:arg1="0.95492637"
       sodipodi:arg2="1.5829876"
       inkscape:flatsided="false"
       inkscape:rounded="0.2104596"
       inkscape:randomized="0"
       d="m 530.9488,186.70897 c -0.77941,0.55189 -3.15759,-1.90601 -4.11253,-1.9179 -0.95532,-0.0119 -3.39494,2.38585 -4.16096,1.8149 -0.76573,-0.57072 0.83698,-3.59203 0.55319,-4.50391 -0.2839,-0.91223 -3.31818,-2.49151 -3.01189,-3.39647 0.30617,-0.90461 3.67487,-0.31399 4.45442,-0.86567 0.77986,-0.5519 1.3442,-3.92569 2.29952,-3.91404 0.95494,0.0116 1.43421,3.39798 2.19979,3.9689 0.76588,0.57114 4.14893,0.0653 4.43307,0.97746 0.28402,0.9118 -2.78848,2.41405 -3.09488,3.31858 -0.30652,0.90489 1.21999,3.96605 0.44027,4.51815 z"
       transform="matrix(0.27707466,-0.00230607,0.00230607,0.27707466,-73.361671,109.24618)"
       inkscape:transform-center-x="-0.0094346789"
       inkscape:transform-center-y="-0.69491065" />
    <path
       inkscape:connector-curvature="0"
       style="display:inline;fill:#babdb6;fill-opacity:1;stroke:none;stroke-width:0.26458332"
       d="m 102.83315,141.16987 c -1.02288,0 -1.85209,0.8292 -1.85209,1.85208 0,1.02288 0.82921,1.85208 1.85209,1.85208 1.02287,0 1.85208,-0.8292 1.85208,-1.85208 0,-1.02288 -0.82921,-1.85208 -1.85208,-1.85208 z m -0.65319,1.05833 c 0.1943,0 0.3886,0.0596 0.3886,0.2888 -0.6775,-0.15972 -0.63973,0.44681 -0.79375,0.0585 -0.0847,-0.21365 0.21085,-0.34726 0.40515,-0.34726 z m 1.30638,0 c 0.1943,0 0.45101,0.12204 0.40514,0.34726 -0.0839,0.41174 -0.13963,-0.25325 -0.79375,-0.0585 0,-0.22925 0.19431,-0.2888 0.38861,-0.2888 z m -0.91778,0.79375 c 0.10859,-0.003 0.19825,0.0354 0.27286,0.0909 0.0746,-0.0556 0.17255,-0.0944 0.28112,-0.0909 0.16711,0.005 0.23984,0.20106 0.23976,0.31418 -1.4e-4,0.20504 0.12576,0.20244 0.26458,0.21911 -0.16778,0.04 -0.26117,0.32407 -0.26045,0.46715 0.001,0.25721 -0.24613,0.33229 -0.5333,0.33073 -0.28716,-0.001 -0.52576,-0.0665 -0.52503,-0.32659 2.7e-4,-0.1078 -0.0932,-0.42085 -0.27285,-0.46716 0.17962,-0.0246 0.26872,-0.0661 0.26872,-0.22738 0,-0.21402 0.1399,-0.307 0.26459,-0.31004 z"
       id="path5202"
       sodipodi:nodetypes="sssssscsssscsscsscscscss" />
    <path
       inkscape:connector-curvature="0"
       id="path5217"
       d="m 103.09771,143.62367 c -0.0449,0.0212 -0.0849,0.0424 -0.0852,0.0719 -0.005,0.0714 -0.099,0.12727 -0.17782,0.12684 -0.0788,-2e-4 -0.15713,-0.0555 -0.15714,-0.12684 2.1e-4,-0.0296 -0.0295,-0.0502 -0.0719,-0.0719 0.13999,-0.1046 0.33152,-0.0895 0.49209,0 z"
       style="display:inline;fill:#babdb6;fill-opacity:1;stroke:none;stroke-width:0.26458332"
       sodipodi:nodetypes="cccccc" />
  </g>
</svg>
