<?xml version="1.0" encoding="UTF-8" standalone="no"?>
<!-- Created with Inkscape (http://www.inkscape.org/) -->

<svg
   xmlns:dc="http://purl.org/dc/elements/1.1/"
   xmlns:cc="http://creativecommons.org/ns#"
   xmlns:rdf="http://www.w3.org/1999/02/22-rdf-syntax-ns#"
   xmlns:svg="http://www.w3.org/2000/svg"
   xmlns="http://www.w3.org/2000/svg"
   xmlns:sodipodi="http://sodipodi.sourceforge.net/DTD/sodipodi-0.dtd"
   xmlns:inkscape="http://www.inkscape.org/namespaces/inkscape"
   width="210mm"
   height="297mm"
   viewBox="0 0 210 297"
   version="1.1"
   id="svg9844"
   inkscape:version="0.92.1 r"
   sodipodi:docname="engagement.svg">
  <defs
     id="defs9838">
    <inkscape:path-effect
       effect="spiro"
       id="path-effect35304"
       is_visible="true" />
  </defs>
  <sodipodi:namedview
     id="base"
     pagecolor="#ffffff"
     bordercolor="#666666"
     borderopacity="1.0"
     inkscape:pageopacity="0.0"
     inkscape:pageshadow="2"
     inkscape:zoom="1.4142136"
     inkscape:cx="359.61719"
     inkscape:cy="745.70155"
     inkscape:document-units="mm"
     inkscape:current-layer="layer1"
     showgrid="false"
     inkscape:window-width="1920"
     inkscape:window-height="1080"
     inkscape:window-x="0"
     inkscape:window-y="0"
     inkscape:window-maximized="0" />
  <metadata
     id="metadata9841">
    <rdf:RDF>
      <cc:Work
         rdf:about="">
        <dc:format>image/svg+xml</dc:format>
        <dc:type
           rdf:resource="http://purl.org/dc/dcmitype/StillImage" />
        <dc:title></dc:title>
      </cc:Work>
    </rdf:RDF>
  </metadata>
  <g
     inkscape:label="Layer 1"
     inkscape:groupmode="layer"
     id="layer1">
    <path
       style="display:inline;fill:#000000;fill-opacity:1;stroke:none;stroke-width:0.26458332px;stroke-linecap:butt;stroke-linejoin:miter;stroke-opacity:1"
       d="m 49.14636,17.807889 c 0.759071,0 1.370163,0.611092 1.370163,1.370163 v 2.740328 c 0,0.759071 -0.611092,1.370163 -1.370163,1.370163 h -3.493918 l -1.712704,2.192263 V 23.25429 c -0.625485,-0.127352 -1.096132,-0.671725 -1.096132,-1.33591 v -2.740328 c 0,-0.759071 0.611094,-1.370163 1.370165,-1.370163 z"
       id="path8268"
       inkscape:connector-curvature="0" />
    <text
       xml:space="preserve"
       style="font-style:normal;font-variant:normal;font-weight:normal;font-stretch:normal;font-size:8.46666622px;line-height:1em;font-family:'Source Sans Pro';-inkscape-font-specification:'Source Sans Pro';font-variant-ligatures:normal;font-variant-position:normal;font-variant-caps:normal;font-variant-numeric:normal;font-variant-alternates:normal;font-feature-settings:normal;text-indent:0;text-align:center;text-decoration:none;text-decoration-line:none;text-decoration-style:solid;text-decoration-color:#000000;letter-spacing:0px;word-spacing:0px;text-transform:none;writing-mode:lr-tb;direction:ltr;text-orientation:mixed;dominant-baseline:auto;baseline-shift:baseline;text-anchor:middle;white-space:normal;shape-padding:0;opacity:1;vector-effect:none;fill:#000000;fill-opacity:1;stroke:none;stroke-width:0;stroke-linecap:round;stroke-linejoin:round;stroke-miterlimit:4;stroke-dasharray:none;stroke-dashoffset:0;stroke-opacity:1"
       x="54.050591"
       y="30.526787"
       id="text10406"><tspan
         sodipodi:role="line"
         id="tspan10404"
         x="54.050591"
         y="30.526787"
         style="stroke-width:0">Engagement</tspan></text>
    <path
       inkscape:connector-curvature="0"
       id="path6273"
       d="m 78.376242,16.210939 c -0.352672,4.3e-4 -0.346777,0.01478 -0.235968,0.458054 l 0.721785,2.206995 h -1.998788 l -0.541338,-0.791187 c -0.06186,-0.09275 -0.05451,-0.09715 -0.152685,-0.09716 h -0.09716 c -0.189988,0 -0.124916,0.194326 -0.124916,0.194326 l 0.124916,1.138199 -0.124916,1.138199 c 0,0 -0.06211,0.194321 0.111052,0.194327 h 0.111053 c 0.09397,0 0.0907,-0.004 0.152683,-0.09716 l 0.541337,-0.791192 h 1.998787 L 78.1403,21.957453 c -0.116243,0.465011 -0.117567,0.471941 0.235968,0.471936 0.191878,0 0.192718,-0.0052 0.31925,-0.222086 l 1.637895,-2.442963 h 1.374167 c 0.246073,0 0.444174,-0.198102 0.444174,-0.444175 0,-0.246073 -0.198101,-0.444174 -0.444174,-0.444174 h -1.374167 l -1.637895,-2.442963 c -0.118374,-0.202921 -0.125842,-0.221296 -0.29149,-0.222087 z"
       style="display:inline;fill:#000000;fill-opacity:1;stroke:none;stroke-width:0.26458332;enable-background:new" />
    <g
       aria-label="Engagement"
       style="font-style:normal;font-variant:normal;font-weight:normal;font-stretch:normal;font-size:8.46666622px;line-height:1em;font-family:'Source Sans Pro';-inkscape-font-specification:'Source Sans Pro';font-variant-ligatures:normal;font-variant-position:normal;font-variant-caps:normal;font-variant-numeric:normal;font-variant-alternates:normal;font-feature-settings:normal;text-indent:0;text-align:center;text-decoration:none;text-decoration-line:none;text-decoration-style:solid;text-decoration-color:#000000;letter-spacing:0px;word-spacing:0px;text-transform:none;writing-mode:lr-tb;direction:ltr;text-orientation:mixed;dominant-baseline:auto;baseline-shift:baseline;text-anchor:middle;white-space:normal;shape-padding:0;opacity:1;vector-effect:none;fill:#000000;fill-opacity:1;stroke:none;stroke-width:0;stroke-linecap:round;stroke-linejoin:round;stroke-miterlimit:4;stroke-dasharray:none;stroke-dashoffset:0;stroke-opacity:1"
       id="text10406-3">
      <path
         id="path10616"
         style="stroke-width:0"
         d="m 75.454057,41.211707 c 0.254,0 0.5334,-0.0762 0.762,-0.1524 L 76.08059,40.534374 c -0.135467,0.0508 -0.321733,0.110067 -0.465667,0.110067 -0.474133,0 -0.635,-0.287867 -0.635,-0.795867 v -2.286 h 1.109134 v -0.567266 h -1.109134 v -1.151467 h -0.5842 l -0.08467,1.151467 -0.643467,0.04233 v 0.524933 h 0.6096 v 2.277533 c 0,0.8128 0.296333,1.3716 1.176867,1.3716 z m -5.925607,-0.1016 h 0.694266 v -2.980266 c 0.414867,-0.414867 0.702734,-0.635 1.126067,-0.635 0.541867,0 0.778933,0.3302 0.778933,1.100667 v 2.514599 h 0.694267 v -2.607733 c 0,-1.049866 -0.389467,-1.608666 -1.253067,-1.608666 -0.567266,0 -0.9906,0.3048 -1.380066,0.694266 h -0.0254 l -0.05927,-0.592666 h -0.57573 z m -2.532327,0.1016 c 0.5588,0 0.999066,-0.194733 1.354666,-0.423333 l -0.245533,-0.4572 c -0.3048,0.194733 -0.635,0.321733 -1.024466,0.321733 -0.7874,0 -1.3208,-0.5588 -1.3716,-1.430866 h 2.777066 c 0.01693,-0.1016 0.0254,-0.254 0.0254,-0.397933 0,-1.176867 -0.592667,-1.9304 -1.642533,-1.9304 -0.9398,0 -1.845733,0.821266 -1.845733,2.167466 0,1.3462 0.872066,2.150533 1.972733,2.150533 z m -1.2954,-2.489199 c 0.08467,-0.8128 0.6096,-1.278467 1.185333,-1.278467 0.643467,0 1.016,0.448733 1.016,1.278467 z m -7.383991,2.387599 h 0.694267 v -2.980266 c 0.381,-0.423333 0.728133,-0.635 1.032933,-0.635 0.524933,0 0.770467,0.3302 0.770467,1.100667 v 2.514599 h 0.694266 v -2.980266 c 0.381,-0.423333 0.7112,-0.635 1.032934,-0.635 0.516466,0 0.762,0.3302 0.762,1.100667 v 2.514599 h 0.694266 v -2.607733 c 0,-1.049866 -0.4064,-1.608666 -1.253066,-1.608666 -0.499534,0 -0.922867,0.321733 -1.354667,0.7874 -0.169333,-0.491067 -0.508,-0.7874 -1.134533,-0.7874 -0.491067,0 -0.922867,0.3048 -1.278467,0.694266 h -0.0254 l -0.05927,-0.592666 h -0.575733 z m -2.532327,0.1016 c 0.5588,0 0.999067,-0.194733 1.354667,-0.423333 l -0.245533,-0.4572 c -0.3048,0.194733 -0.635,0.321733 -1.024467,0.321733 -0.7874,0 -1.3208,-0.5588 -1.3716,-1.430866 h 2.777067 c 0.01693,-0.1016 0.0254,-0.254 0.0254,-0.397933 0,-1.176867 -0.592667,-1.9304 -1.642534,-1.9304 -0.9398,0 -1.845733,0.821266 -1.845733,2.167466 0,1.3462 0.872067,2.150533 1.972733,2.150533 z m -1.2954,-2.489199 c 0.08467,-0.8128 0.6096,-1.278467 1.185334,-1.278467 0.643466,0 1.016,0.448733 1.016,1.278467 z m -3.134652,4.284133 c 1.278467,0 2.0828,-0.6604 2.0828,-1.4224 0,-0.6858 -0.4826,-0.982134 -1.439333,-0.982134 h -0.795867 c -0.5588,0 -0.728133,-0.186266 -0.728133,-0.448733 0,-0.2286 0.118533,-0.364067 0.262467,-0.491067 0.186266,0.09313 0.414866,0.143934 0.618066,0.143934 0.8382,0 1.507067,-0.550333 1.507067,-1.430867 0,-0.347133 -0.143933,-0.6604 -0.338667,-0.846666 h 0.846667 v -0.5334 h -1.430867 c -0.1524,-0.05927 -0.3556,-0.1016 -0.5842,-0.1016 -0.8382,0 -1.5494,0.567266 -1.5494,1.464733 0,0.491067 0.262467,0.889 0.5334,1.109133 v 0.03387 c -0.211666,0.143933 -0.448733,0.414866 -0.448733,0.762 0,0.321733 0.160867,0.541866 0.364067,0.668866 v 0.03387 c -0.372534,0.254 -0.601134,0.5842 -0.601134,0.931333 0,0.7112 0.694267,1.109134 1.7018,1.109134 z m 0,-3.666067 c -0.474133,0 -0.872066,-0.381 -0.872066,-0.982133 0,-0.601133 0.389466,-0.956733 0.872066,-0.956733 0.4826,0 0.872067,0.3556 0.872067,0.956733 0,0.601133 -0.397933,0.982133 -0.872067,0.982133 z m 0.1016,3.183467 c -0.745066,0 -1.1938,-0.2794 -1.1938,-0.719667 0,-0.237067 0.127,-0.4826 0.423334,-0.694267 0.1778,0.0508 0.372533,0.06773 0.5334,0.06773 h 0.7112 c 0.5334,0 0.829733,0.127 0.829733,0.508 0,0.4318 -0.516467,0.8382 -1.303867,0.8382 z m -4.808271,-1.312334 c 0.516466,0 0.973666,-0.270933 1.363133,-0.592666 h 0.0254 l 0.05927,0.491066 h 0.575733 v -2.523066 c 0,-1.024467 -0.423333,-1.693333 -1.430867,-1.693333 -0.6604,0 -1.236133,0.287866 -1.617133,0.5334 l 0.270933,0.4826 c 0.321734,-0.220134 0.753534,-0.440267 1.227667,-0.440267 0.677333,0 0.846667,0.508 0.846667,1.032933 -1.7526,0.194734 -2.523067,0.643467 -2.523067,1.540933 0,0.7366 0.516467,1.1684 1.202267,1.1684 z m 0.2032,-0.5588 c -0.4064,0 -0.728134,-0.194733 -0.728134,-0.6604 0,-0.524933 0.474134,-0.863599 1.845734,-1.032933 v 1.143 c -0.397934,0.3556 -0.719667,0.550333 -1.1176,0.550333 z m -3.897048,2.353734 c 1.278467,0 2.0828,-0.6604 2.0828,-1.4224 0,-0.6858 -0.4826,-0.982134 -1.439333,-0.982134 h -0.795867 c -0.5588,0 -0.728133,-0.186266 -0.728133,-0.448733 0,-0.2286 0.118533,-0.364067 0.262466,-0.491067 0.186267,0.09313 0.414867,0.143934 0.618067,0.143934 0.8382,0 1.507067,-0.550333 1.507067,-1.430867 0,-0.347133 -0.143934,-0.6604 -0.338667,-0.846666 h 0.846667 v -0.5334 h -1.430867 c -0.1524,-0.05927 -0.3556,-0.1016 -0.5842,-0.1016 -0.8382,0 -1.5494,0.567266 -1.5494,1.464733 0,0.491067 0.262467,0.889 0.5334,1.109133 v 0.03387 c -0.211667,0.143933 -0.448733,0.414866 -0.448733,0.762 0,0.321733 0.160866,0.541866 0.364066,0.668866 v 0.03387 c -0.372533,0.254 -0.601133,0.5842 -0.601133,0.931333 0,0.7112 0.694267,1.109134 1.7018,1.109134 z m 0,-3.666067 c -0.474133,0 -0.872067,-0.381 -0.872067,-0.982133 0,-0.601133 0.389467,-0.956733 0.872067,-0.956733 0.4826,0 0.872067,0.3556 0.872067,0.956733 0,0.601133 -0.397934,0.982133 -0.872067,0.982133 z m 0.1016,3.183467 c -0.745067,0 -1.1938,-0.2794 -1.1938,-0.719667 0,-0.237067 0.127,-0.4826 0.423333,-0.694267 0.1778,0.0508 0.372534,0.06773 0.5334,0.06773 h 0.7112 c 0.5334,0 0.829734,0.127 0.829734,0.508 0,0.4318 -0.516467,0.8382 -1.303867,0.8382 z m -6.120341,-1.413934 h 0.694266 v -2.980266 c 0.414867,-0.414867 0.702734,-0.635 1.126067,-0.635 0.541867,0 0.778933,0.3302 0.778933,1.100667 v 2.514599 h 0.694267 v -2.607733 c 0,-1.049866 -0.389467,-1.608666 -1.253067,-1.608666 -0.567266,0 -0.9906,0.3048 -1.380066,0.694266 h -0.0254 l -0.05927,-0.592666 H 36.93509 Z m -4.397111,0 h 3.285067 v -0.601133 h -2.582333 v -2.015066 h 2.108199 v -0.601134 h -2.108199 v -1.744133 h 2.497666 v -0.592667 h -3.2004 z" />
    </g>
    <g
       aria-label="Engagement"
       style="font-style:normal;font-variant:normal;font-weight:normal;font-stretch:normal;font-size:8.46666622px;line-height:1em;font-family:'Source Sans Pro';-inkscape-font-specification:'Source Sans Pro';font-variant-ligatures:normal;font-variant-position:normal;font-variant-caps:normal;font-variant-numeric:normal;font-variant-alternates:normal;font-feature-settings:normal;text-indent:0;text-align:center;text-decoration:none;text-decoration-line:none;text-decoration-style:solid;text-decoration-color:#000000;letter-spacing:0px;word-spacing:0px;text-transform:none;writing-mode:lr-tb;direction:ltr;text-orientation:mixed;dominant-baseline:auto;baseline-shift:baseline;text-anchor:middle;white-space:normal;shape-padding:0;opacity:1;vector-effect:none;fill:#000000;fill-opacity:1;stroke:#000000;stroke-width:0.8;stroke-linecap:round;stroke-linejoin:round;stroke-miterlimit:4;stroke-dasharray:none;stroke-dashoffset:0;stroke-opacity:1"
       id="text10406-3-6"
       transform="translate(0,-10.583333)" />
    <g
       id="g10741"
       transform="translate(-56.091667,-15.610417)">
      <path
         inkscape:connector-curvature="0"
         id="rect35282"
         d="m 77.686521,25.251822 v 0.385205 5.013363 h 5.398568 v -5.398568 z m 0.773262,0.773262 h 3.852044 v 3.852044 h -3.852044 z"
         style="color:#000000;font-style:normal;font-variant:normal;font-weight:normal;font-stretch:normal;font-size:medium;line-height:normal;font-family:sans-serif;font-variant-ligatures:normal;font-variant-position:normal;font-variant-caps:normal;font-variant-numeric:normal;font-variant-alternates:normal;font-feature-settings:normal;text-indent:0;text-align:start;text-decoration:none;text-decoration-line:none;text-decoration-style:solid;text-decoration-color:#000000;letter-spacing:normal;word-spacing:normal;text-transform:none;writing-mode:lr-tb;direction:ltr;text-orientation:mixed;dominant-baseline:auto;baseline-shift:baseline;text-anchor:start;white-space:normal;shape-padding:0;clip-rule:nonzero;display:inline;overflow:visible;visibility:visible;opacity:1;isolation:auto;mix-blend-mode:normal;color-interpolation:sRGB;color-interpolation-filters:linearRGB;solid-color:#000000;solid-opacity:1;vector-effect:none;fill:#bebebe;fill-opacity:1;fill-rule:nonzero;stroke:none;stroke-width:0.52916664;stroke-linecap:butt;stroke-linejoin:miter;stroke-miterlimit:4;stroke-dasharray:none;stroke-dashoffset:0;stroke-opacity:1;marker:none;color-rendering:auto;image-rendering:auto;shape-rendering:auto;text-rendering:auto;enable-background:new" />
      <path
         inkscape:connector-curvature="0"
         id="path35302"
         d="m 80.973598,28.059534 c -0.18029,-0.02486 -0.405875,-0.03834 -0.5935,0.108429 -0.155847,0.121914 -0.301088,0.276172 -0.428005,0.393764 -0.126925,0.11759 -0.251009,0.168348 -0.225415,0.16835 h -1.486605 v 0.385203 h 1.486605 c 0.224991,0 0.350094,-0.140716 0.490778,-0.27107 0.140687,-0.130343 0.281839,-0.279539 0.402325,-0.37379 0.04108,-0.03214 0.155555,-0.04555 0.299604,-0.02568 0.144047,0.01987 0.272796,0.06847 0.42515,0.06847 0.05662,0 0.08649,0.01286 0.128401,0.0485 0.04191,0.03565 0.0878,0.09921 0.13981,0.174056 0.05201,0.07484 0.106881,0.160901 0.191175,0.239682 0.08429,0.07879 0.211353,0.148375 0.356671,0.148375 h 0.333844 v -0.388057 h -0.333844 c -0.03832,0 -0.05322,-0.0072 -0.09131,-0.04281 -0.03809,-0.03559 -0.08584,-0.102104 -0.13981,-0.179763 -0.05397,-0.07766 -0.115749,-0.166666 -0.208295,-0.245389 -0.09253,-0.07873 -0.225466,-0.142674 -0.376645,-0.142674 -0.01271,0 -0.190648,-0.04076 -0.370938,-0.06563 z"
         style="color:#000000;font-style:normal;font-variant:normal;font-weight:normal;font-stretch:normal;font-size:medium;line-height:normal;font-family:sans-serif;font-variant-ligatures:normal;font-variant-position:normal;font-variant-caps:normal;font-variant-numeric:normal;font-variant-alternates:normal;font-feature-settings:normal;text-indent:0;text-align:start;text-decoration:none;text-decoration-line:none;text-decoration-style:solid;text-decoration-color:#000000;letter-spacing:normal;word-spacing:normal;text-transform:none;writing-mode:lr-tb;direction:ltr;text-orientation:mixed;dominant-baseline:auto;baseline-shift:baseline;text-anchor:start;white-space:normal;shape-padding:0;clip-rule:nonzero;display:inline;overflow:visible;visibility:visible;opacity:1;isolation:auto;mix-blend-mode:normal;color-interpolation:sRGB;color-interpolation-filters:linearRGB;solid-color:#000000;solid-opacity:1;vector-effect:none;fill:#bebebe;fill-opacity:1;fill-rule:nonzero;stroke:none;stroke-width:0.26458332;stroke-linecap:butt;stroke-linejoin:miter;stroke-miterlimit:4;stroke-dasharray:none;stroke-dashoffset:0;stroke-opacity:1;marker:none;color-rendering:auto;image-rendering:auto;shape-rendering:auto;text-rendering:auto;enable-background:accumulate" />
      <path
         inkscape:connector-curvature="0"
         id="path35306"
         d="m 79.395687,26.353221 c -0.332512,0 -0.607767,0.275255 -0.607767,0.607767 0,0.332512 0.275255,0.604913 0.607767,0.604913 0.332512,0 0.604914,-0.272401 0.604914,-0.604913 0,-0.332512 -0.272402,-0.607767 -0.604914,-0.607767 z m 0,0.388058 c 0.123609,0 0.21971,0.0961 0.21971,0.219709 0,0.123609 -0.0961,0.21971 -0.21971,0.21971 -0.123609,0 -0.21971,-0.0961 -0.21971,-0.21971 0,-0.123609 0.0961,-0.219709 0.21971,-0.219709 z"
         style="color:#000000;font-style:normal;font-variant:normal;font-weight:normal;font-stretch:normal;font-size:medium;line-height:normal;font-family:sans-serif;font-variant-ligatures:normal;font-variant-position:normal;font-variant-caps:normal;font-variant-numeric:normal;font-variant-alternates:normal;font-feature-settings:normal;text-indent:0;text-align:start;text-decoration:none;text-decoration-line:none;text-decoration-style:solid;text-decoration-color:#000000;letter-spacing:normal;word-spacing:normal;text-transform:none;writing-mode:lr-tb;direction:ltr;text-orientation:mixed;dominant-baseline:auto;baseline-shift:baseline;text-anchor:start;white-space:normal;shape-padding:0;clip-rule:nonzero;display:inline;overflow:visible;visibility:visible;opacity:1;isolation:auto;mix-blend-mode:normal;color-interpolation:sRGB;color-interpolation-filters:linearRGB;solid-color:#000000;solid-opacity:1;vector-effect:none;fill:#bebebe;fill-opacity:1;fill-rule:nonzero;stroke:none;stroke-width:0.26458332;stroke-linecap:round;stroke-linejoin:miter;stroke-miterlimit:4;stroke-dasharray:none;stroke-dashoffset:0;stroke-opacity:1;marker:none;color-rendering:auto;image-rendering:auto;shape-rendering:auto;text-rendering:auto;enable-background:accumulate" />
    </g>
    <g
       id="g10736"
       transform="matrix(1.1140366,0,0,1.1140366,-17.201273,-19.525593)"
       style="stroke-width:0.89763653">
      <path
         style="color:#000000;display:inline;overflow:visible;visibility:visible;fill:#bebebe;fill-opacity:1;fill-rule:nonzero;stroke:none;stroke-width:1.50793624;marker:none;enable-background:new"
         d="M 297.23047 108.73242 A 5.801815 5.801815 0 0 0 291.42773 114.53516 A 5.801815 5.801815 0 0 0 291.49414 115.37891 L 281.75586 120.12109 A 5.801815 5.801815 0 0 0 277.74805 118.50391 A 5.801815 5.801815 0 0 0 271.94727 124.30664 A 5.801815 5.801815 0 0 0 277.74805 130.10742 A 5.801815 5.801815 0 0 0 281.78906 128.4707 L 291.47852 133.35352 A 5.801815 5.801815 0 0 0 291.42773 134.07812 A 5.801815 5.801815 0 0 0 297.23047 139.87891 A 5.801815 5.801815 0 0 0 303.03125 134.07812 A 5.801815 5.801815 0 0 0 297.23047 128.27539 A 5.801815 5.801815 0 0 0 293.24609 129.86328 L 283.50977 124.95703 A 5.801815 5.801815 0 0 0 283.55078 124.30664 A 5.801815 5.801815 0 0 0 283.50195 123.62109 L 293.33984 118.83008 A 5.801815 5.801815 0 0 0 297.23047 120.33594 A 5.801815 5.801815 0 0 0 303.03125 114.53516 A 5.801815 5.801815 0 0 0 297.23047 108.73242 z "
         transform="matrix(0.23749968,0,0,0.23749968,15.440492,17.526886)"
         id="path24876-5-1" />
    </g>
    <path
       transform="scale(-1,1)"
       style="color:#bebebe;display:inline;overflow:visible;visibility:visible;fill:#bebebe;fill-opacity:1;stroke:none;stroke-width:0.26458332;marker:none"
       d="m -66.869381,11.911458 h 2.108505 c 0.146549,0 0.26453,0.118004 0.26453,0.264583 v 1.852084 c 0,0.146579 -0.117981,0.264583 -0.26453,0.264583 h -2.108505 c -0.14655,0 -0.26453,-0.118004 -0.26453,-0.264583 v -1.852084 c 0,-0.146579 0.11798,-0.264583 0.26453,-0.264583 z"
       id="rect6844" />
    <path
       inkscape:connector-curvature="0"
       id="path6846"
       d="M 64.496348,13.09396 63.57843,12.176041 h -0.140468 v 1.852084 h 0.132292 z"
       style="color:#bebebe;display:inline;overflow:visible;visibility:visible;fill:#bebebe;fill-opacity:1;stroke:none;stroke-width:0.26458332;marker:none"
       sodipodi:nodetypes="cccccc" />
    <path
       style="color:#bebebe;display:inline;overflow:visible;visibility:visible;fill:#bebebe;fill-opacity:1;fill-rule:nonzero;stroke:none;stroke-width:0.79374999;marker:none;enable-background:accumulate"
       d="m 52.652083,7.8104164 c -0.14551,0 -0.264583,0.119073 -0.264583,0.2645833 V 8.339583 h -0.79375 c -0.146054,0 -0.264583,0.1190731 -0.264583,0.2645834 v 2.1166666 c 0,0.14551 0.118529,0.264583 0.264583,0.264583 h 3.175 c 0.146054,0 0.264583,-0.119073 0.264583,-0.264583 V 8.6041664 c 0,-0.1455103 -0.118529,-0.2645834 -0.264583,-0.2645834 H 53.975 V 8.0749997 c 0,-0.1455103 -0.119073,-0.2645833 -0.264583,-0.2645833 z m 0.529167,0.79375 c 0.584501,0 1.058333,0.4738317 1.058333,1.0583333 0,0.5845013 -0.473832,1.0583333 -1.058333,1.0583333 -0.584501,0 -1.058333,-0.473832 -1.058333,-1.0583333 0,-0.5845016 0.473832,-1.0583333 1.058333,-1.0583333 z m 0,0.5291667 c -0.292251,0 -0.529167,0.2369158 -0.529167,0.5291666 0,0.2922508 0.236916,0.5291663 0.529167,0.5291663 0.292251,0 0.529167,-0.2369155 0.529167,-0.5291663 0,-0.2922508 -0.236916,-0.5291666 -0.529167,-0.5291666 z"
       id="rect5238"
       inkscape:connector-curvature="0" />
    <path
       style="opacity:1;fill:#000000;fill-opacity:1;fill-rule:evenodd;stroke:#000000;stroke-width:0.80000001;stroke-linecap:round;stroke-linejoin:round;stroke-miterlimit:4;stroke-dasharray:none;stroke-dashoffset:0;stroke-opacity:1"
       d="M 58.075243,32.006168 C 69.113474,26.814457 114.49251,16.672202 114.49251,16.672202 l 1.86952,8.69725 c 0,0 -50.756468,3.783614 -58.286787,6.636716 z"
       id="path10776"
       inkscape:connector-curvature="0"
       sodipodi:nodetypes="cccc" />
    <text
       xml:space="preserve"
       style="font-style:normal;font-variant:normal;font-weight:normal;font-stretch:normal;font-size:8.46666622px;line-height:1em;font-family:'Source Sans Pro';-inkscape-font-specification:'Source Sans Pro';font-variant-ligatures:normal;font-variant-position:normal;font-variant-caps:normal;font-variant-numeric:normal;font-variant-alternates:normal;font-feature-settings:normal;text-indent:0;text-align:center;text-decoration:none;text-decoration-line:none;text-decoration-style:solid;text-decoration-color:#000000;letter-spacing:0px;word-spacing:0px;text-transform:none;writing-mode:lr-tb;direction:ltr;text-orientation:mixed;dominant-baseline:auto;baseline-shift:baseline;text-anchor:middle;white-space:normal;shape-padding:0;opacity:1;vector-effect:none;fill:#000000;fill-opacity:1;stroke:none;stroke-width:0;stroke-linecap:round;stroke-linejoin:round;stroke-miterlimit:4;stroke-dasharray:none;stroke-dashoffset:0;stroke-opacity:1"
       x="54.050591"
       y="62.276779"
       id="text10406-2"><tspan
         sodipodi:role="line"
         id="tspan10404-7"
         x="54.050591"
         y="62.276779"
         style="stroke-width:0">Translation</tspan></text>
    <path
       style="color:#000000;font-style:normal;font-variant:normal;font-weight:normal;font-stretch:normal;font-size:medium;line-height:normal;font-family:sans-serif;font-variant-ligatures:normal;font-variant-position:normal;font-variant-caps:normal;font-variant-numeric:normal;font-variant-alternates:normal;font-feature-settings:normal;text-indent:0;text-align:start;text-decoration:none;text-decoration-line:none;text-decoration-style:solid;text-decoration-color:#000000;letter-spacing:normal;word-spacing:normal;text-transform:none;writing-mode:lr-tb;direction:ltr;text-orientation:mixed;dominant-baseline:auto;baseline-shift:baseline;text-anchor:start;white-space:normal;shape-padding:0;clip-rule:nonzero;display:inline;overflow:visible;visibility:visible;opacity:1;isolation:auto;mix-blend-mode:normal;color-interpolation:sRGB;color-interpolation-filters:linearRGB;solid-color:#000000;solid-opacity:1;vector-effect:none;fill:#bebebe;fill-opacity:1;fill-rule:nonzero;stroke:none;stroke-width:0.52916664;stroke-linecap:butt;stroke-linejoin:miter;stroke-miterlimit:4;stroke-dasharray:none;stroke-dashoffset:0;stroke-opacity:1;marker:none;color-rendering:auto;image-rendering:auto;shape-rendering:auto;text-rendering:auto;enable-background:accumulate"
       d="m 69.006146,54.136422 v 0.768488 h 0.742873 c -0.02128,0 0.0313,0.06396 0.0313,0.03416 v 0.355783 H 69.39323 c -0.661598,0 -1.168853,0.43239 -1.17835,0.956342 -0.0048,0.261974 0.118827,0.525943 0.333011,0.703024 0.214184,0.177081 0.506841,0.270394 0.845339,0.270394 h 1.158425 v -2.285546 c 0,-0.451578 -0.341173,-0.802643 -0.802644,-0.802643 z m 0.387092,1.929761 h 0.387089 v 0.38709 h -0.387089 c -0.20027,0 -0.307147,-0.05372 -0.355783,-0.09392 -0.04863,-0.04021 -0.05173,-0.06617 -0.05124,-0.09392 0.001,-0.05549 0.0331,-0.199237 0.407015,-0.199237 z"
       id="path28099"
       inkscape:connector-curvature="0" />
    <path
       style="color:#000000;font-style:normal;font-variant:normal;font-weight:normal;font-stretch:normal;font-size:medium;line-height:normal;font-family:sans-serif;font-variant-ligatures:normal;font-variant-position:normal;font-variant-caps:normal;font-variant-numeric:normal;font-variant-alternates:normal;font-feature-settings:normal;text-indent:0;text-align:start;text-decoration:none;text-decoration-line:none;text-decoration-style:solid;text-decoration-color:#000000;letter-spacing:normal;word-spacing:normal;text-transform:none;writing-mode:lr-tb;direction:ltr;text-orientation:mixed;dominant-baseline:auto;baseline-shift:baseline;text-anchor:start;white-space:normal;shape-padding:0;clip-rule:nonzero;display:inline;overflow:visible;visibility:visible;opacity:1;isolation:auto;mix-blend-mode:normal;color-interpolation:sRGB;color-interpolation-filters:linearRGB;solid-color:#000000;solid-opacity:1;vector-effect:none;fill:#bebebe;fill-opacity:1;fill-rule:nonzero;stroke:none;stroke-width:0.52916664;stroke-linecap:butt;stroke-linejoin:miter;stroke-miterlimit:4;stroke-dasharray:none;stroke-dashoffset:0;stroke-opacity:1;marker:none;color-rendering:auto;image-rendering:auto;shape-rendering:auto;text-rendering:auto;enable-background:accumulate"
       d="m 70.933061,53.746485 v 3.478123 h 1.158427 c 0.361881,0 0.683675,-0.143892 0.888031,-0.370013 0.204357,-0.226118 0.29413,-0.515553 0.290319,-0.796951 -0.0038,-0.281399 -0.101413,-0.565869 -0.304551,-0.788414 -0.203133,-0.222543 -0.51867,-0.367166 -0.873799,-0.367166 h -0.387091 v -1.155579 z m 0.771336,1.926914 h 0.387091 c 0.162631,0 0.242239,0.04843 0.304548,0.116699 0.06231,0.06826 0.101019,0.172589 0.102462,0.278934 0.0014,0.106338 -0.03261,0.202859 -0.09108,0.267547 -0.05847,0.06469 -0.139054,0.1167 -0.315935,0.1167 h -0.387091 z"
       id="path28101"
       inkscape:connector-curvature="0" />
    <g
       id="g10889"
       transform="matrix(1.5288461,0,0,1.5288461,-39.886566,-31.822393)"
       style="stroke-width:0.65408808">
      <path
         style="display:inline;fill:#bebebe;fill-opacity:1;fill-rule:evenodd;stroke:none;stroke-width:0.1730608"
         d="m 74.546833,58.643489 2.380771,-2.38125 c 0.264584,0 0.529167,0.264584 0.529167,0.529167 l -2.38125,2.38125 h -0.529167 z"
         id="path2273-6-2-8"
         sodipodi:nodetypes="cccccc"
         inkscape:connector-curvature="0" />
      <path
         style="display:inline;overflow:visible;visibility:visible;fill:#bebebe;fill-opacity:1;fill-rule:nonzero;stroke:none;stroke-width:0.1730608;marker:none;enable-background:new"
         d="m 77.192188,55.997656 c 0.264583,0 0.529166,0.264583 0.529166,0.529167 l 0.264584,-0.264584 c 0,-0.264583 -0.198927,-0.529166 -0.529167,-0.529166 z"
         id="path4113-1-6-3-4"
         sodipodi:nodetypes="ccccc"
         inkscape:connector-curvature="0" />
    </g>
    <path
       style="color:#000000;font-style:normal;font-variant:normal;font-weight:normal;font-stretch:normal;font-size:medium;line-height:normal;font-family:sans-serif;font-variant-ligatures:normal;font-variant-position:normal;font-variant-caps:normal;font-variant-numeric:normal;font-variant-alternates:normal;font-feature-settings:normal;text-indent:0;text-align:start;text-decoration:none;text-decoration-line:none;text-decoration-style:solid;text-decoration-color:#000000;letter-spacing:normal;word-spacing:normal;text-transform:none;writing-mode:lr-tb;direction:ltr;text-orientation:mixed;dominant-baseline:auto;baseline-shift:baseline;text-anchor:start;white-space:normal;shape-padding:0;clip-rule:nonzero;display:inline;overflow:visible;visibility:visible;opacity:1;isolation:auto;mix-blend-mode:normal;color-interpolation:sRGB;color-interpolation-filters:linearRGB;solid-color:#000000;solid-opacity:1;vector-effect:none;fill:#bebebe;fill-opacity:1;fill-rule:nonzero;stroke:none;stroke-width:1.99999988;stroke-linecap:butt;stroke-linejoin:miter;stroke-miterlimit:4;stroke-dasharray:none;stroke-dashoffset:0;stroke-opacity:1;marker:none;color-rendering:auto;image-rendering:auto;shape-rendering:auto;text-rendering:auto;enable-background:accumulate"
       d="M 284.28516 235.51953 C 283.80647 235.51953 283.43076 235.65971 283.125 235.95508 L 277.46875 241.70703 L 283.125 247.45898 C 283.43079 247.75433 283.80651 247.89453 284.28516 247.89453 L 285.83203 247.89453 L 285.83203 246.34766 C 285.83203 245.95028 285.63021 245.53072 285.34766 245.23633 L 282.82227 242.70898 L 295.0293 242.70898 L 292.50195 245.23633 C 292.2194 245.53072 292.01953 245.95028 292.01953 246.34766 L 292.01953 247.89453 L 293.56641 247.89453 C 294.04506 247.89453 294.42078 247.75433 294.72656 247.45898 L 300.38086 241.70703 L 294.72656 235.95508 C 294.4208 235.65971 294.04509 235.51953 293.56641 235.51953 L 292.01953 235.51953 L 292.01953 237.06641 C 292.01953 237.46379 292.21937 237.88338 292.50195 238.17773 L 295.0332 240.70898 L 282.81836 240.70898 L 285.34766 238.17773 C 285.63023 237.88338 285.83203 237.46379 285.83203 237.06641 L 285.83203 235.51953 L 284.28516 235.51953 z "
       transform="scale(0.26458333)"
       id="path15405" />
    <path
       style="display:inline;fill:#bebebe;fill-opacity:1;stroke:none;stroke-width:0.26458332"
       d="m 62.716203,63.383111 c -0.884684,0 -1.596904,0.71221 -1.596904,1.596901 v 3.193804 c 0,0.884684 0.71222,1.596901 1.596904,1.596901 h 4.511245 c 0.884691,0 1.584268,-0.712306 1.596904,-1.596901 v -1.517058 l 2.51512,-1.996127 h -2.555044 c -0.148426,-0.728984 -0.782876,-1.27752 -1.55698,-1.27752 z m -0.319381,3.193802 h 5.110086 v 0.638762 h -5.110086 z m 0,1.277522 h 3.193804 v 0.63876 h -3.193804 z"
       id="path8268-0"
       inkscape:connector-curvature="0"
       sodipodi:nodetypes="sssssccccsscccccccccc" />
    <path
       sodipodi:nodetypes="sccssccsssssssccccccccccccsssssccccccccccccccccccccccccccc"
       inkscape:connector-curvature="0"
       id="path76627"
       d="m 56.762184,54.239562 c -1.039644,0 -1.354145,0.406245 -1.354145,0.406245 v 2.91662 c 0,0 0.314501,-0.312496 1.354145,-0.312496 0.84633,0 1.297967,0.312496 2.083299,0.312496 0.606348,0 0.927067,-0.406244 0.927067,-0.406244 v -2.916621 c 0,0 -0.331132,0.30208 -0.937485,0.30208 -0.979046,0 -1.153994,-0.30208 -2.072881,-0.30208 z m 0.850784,0.804357 c 0.385642,0 0.689289,0.313552 0.689289,0.707427 0,0.393875 -0.303647,0.716497 -0.689289,0.716497 -0.385641,0 -0.698357,-0.322622 -0.698357,-0.716497 0,-0.393875 0.312716,-0.707427 0.698357,-0.707427 z m -1.324158,0.281158 0.281158,0.299295 -0.272088,-0.0091 0.272088,0.290226 -0.281158,-0.0091 0.281158,0.299297 -0.290227,-0.0091 0.0091,-0.290226 h -0.0091 l 0.0091,-0.281172 h -0.0091 z m 1.324158,0 c -0.230439,0 -0.426269,0.19091 -0.426269,0.426269 0,0.23536 0.19583,0.426271 0.426269,0.426271 0.230437,0 0.417202,-0.190911 0.417202,-0.426271 0,-0.235359 -0.186765,-0.426269 -0.417202,-0.426269 z m 1.269742,0 v 0.290226 l 0.0091,0.281157 h -0.0091 l 0.0091,0.290226 -0.290224,0.0091 0.281156,-0.299296 -0.281156,0.0091 0.272087,-0.290228 -0.272087,0.009 z m -2.303673,0.861609 0.281157,0.299297 -0.290226,-0.0091 z m 2.013448,0 0.0091,0.290227 -0.290228,0.0091 z m -1.723222,0.290227 0.281157,0.299296 -0.290226,-0.0091 z m 1.432994,0 0.009,0.290227 -0.290224,0.0091 z"
       style="fill:#bebebe;fill-opacity:1;stroke:none;stroke-width:0.26458332" />
    <text
       xml:space="preserve"
       style="font-style:normal;font-variant:normal;font-weight:normal;font-stretch:normal;font-size:8.46666622px;line-height:1em;font-family:'Source Sans Pro';-inkscape-font-specification:'Source Sans Pro';font-variant-ligatures:normal;font-variant-position:normal;font-variant-caps:normal;font-variant-numeric:normal;font-variant-alternates:normal;font-feature-settings:normal;text-indent:0;text-align:center;text-decoration:none;text-decoration-line:none;text-decoration-style:solid;text-decoration-color:#000000;letter-spacing:0px;word-spacing:0px;text-transform:none;writing-mode:lr-tb;direction:ltr;text-orientation:mixed;dominant-baseline:auto;baseline-shift:baseline;text-anchor:middle;white-space:normal;shape-padding:0;opacity:1;vector-effect:none;fill:#000000;fill-opacity:1;stroke:none;stroke-width:0;stroke-linecap:round;stroke-linejoin:round;stroke-miterlimit:4;stroke-dasharray:none;stroke-dashoffset:0;stroke-opacity:1"
       x="54.050591"
       y="109.90176"
       id="text10406-2-9"><tspan
         sodipodi:role="line"
         id="tspan10404-7-3"
         x="54.050591"
         y="109.90176"
         style="stroke-width:0">Documentation</tspan></text>
    <g
       id="g11061"
       transform="matrix(3.3477127,0,0,3.3477127,-181.06443,-272.49748)"
       style="stroke-width:0.29871142">
      <path
         style="color:#000000;font-style:normal;font-variant:normal;font-weight:normal;font-stretch:normal;font-size:medium;line-height:normal;font-family:sans-serif;font-variant-ligatures:normal;font-variant-position:normal;font-variant-caps:normal;font-variant-numeric:normal;font-variant-alternates:normal;font-feature-settings:normal;text-indent:0;text-align:start;text-decoration:none;text-decoration-line:none;text-decoration-style:solid;text-decoration-color:#000000;letter-spacing:normal;word-spacing:normal;text-transform:none;writing-mode:lr-tb;direction:ltr;text-orientation:mixed;dominant-baseline:auto;baseline-shift:baseline;text-anchor:start;white-space:normal;shape-padding:0;clip-rule:nonzero;display:inline;overflow:visible;visibility:visible;opacity:1;isolation:auto;mix-blend-mode:normal;color-interpolation:sRGB;color-interpolation-filters:linearRGB;solid-color:#000000;solid-opacity:1;vector-effect:none;fill:#c3c3c3;fill-opacity:1;fill-rule:nonzero;stroke:none;stroke-width:0.99999988;stroke-linecap:butt;stroke-linejoin:miter;stroke-miterlimit:4;stroke-dasharray:none;stroke-dashoffset:0;stroke-opacity:1;color-rendering:auto;image-rendering:auto;shape-rendering:auto;text-rendering:auto;enable-background:accumulate"
         d="M 347.86133 381.5918 C 345.49715 381.70817 342.71741 382.49249 339.34961 384.25977 C 334.27782 381.52993 330.2045 381.13176 326.87109 381.98633 L 326.87109 381.98438 C 323.29316 382.9017 320.38006 384.39231 315.84961 384.25781 L 314.11914 384.20703 L 314.11914 385.9375 L 314.11914 385.98828 L 314.11914 420.38672 L 314.11914 431.1875 L 364.33398 431.1875 L 364.33398 420.41211 L 364.33398 386.0625 L 364.33398 384.25781 L 362.60547 384.33398 C 357.52816 384.51618 354.98614 383.006 351.70703 382.03516 C 350.54932 381.69211 349.27984 381.52197 347.86133 381.5918 z M 347.66406 384.71875 C 348.75981 384.71387 349.7299 384.93887 350.76758 385.24609 C 352.49167 385.7569 354.81002 386.47845 357.63672 386.93945 L 357.63672 415.87305 C 355.73146 415.36627 353.75007 414.7449 351.58398 414.20898 C 348.31011 413.3989 344.57346 413.87003 340.89844 416.14844 L 340.89844 386.9707 C 343.92867 385.31933 345.9637 384.72632 347.66406 384.71875 z M 331.15039 384.72852 C 332.92105 384.74888 334.9143 385.29369 337.55078 386.73828 L 337.55078 415.98828 C 333.85835 413.81853 330.14293 413.43243 326.89453 414.23438 C 324.70785 414.77412 322.72046 415.39925 320.81641 415.9043 L 320.81641 386.83203 C 323.48105 386.37928 325.79161 385.7063 327.68555 385.2207 L 327.68555 385.22266 C 328.84617 384.92516 329.95357 384.71475 331.15039 384.72852 z M 346.92773 416.95508 C 348.17388 416.92002 349.4311 417.14004 350.76758 417.4707 C 352.92188 418.00379 355.19655 418.94193 357.63672 419.61133 L 357.63672 424.49023 L 320.81641 424.49023 L 320.81641 419.63086 C 323.24524 418.96811 325.51418 418.03017 327.68555 417.49414 C 331.28462 416.60592 334.35639 416.50361 338.21289 419.9668 L 339.34961 420.98047 L 340.46289 419.94141 C 342.80389 417.78182 344.85083 417.01351 346.92773 416.95508 z "
         transform="matrix(0.07903406,0,0,0.07903406,54.086012,81.398108)"
         id="rect2996" />
    </g>
    <path
       style="color:#bebebe;font-style:normal;font-variant:normal;font-weight:normal;font-stretch:normal;font-size:medium;line-height:normal;font-family:sans-serif;font-variant-ligatures:normal;font-variant-position:normal;font-variant-caps:normal;font-variant-numeric:normal;font-variant-alternates:normal;font-feature-settings:normal;text-indent:0;text-align:start;text-decoration:none;text-decoration-line:none;text-decoration-style:solid;text-decoration-color:#000000;letter-spacing:normal;word-spacing:normal;text-transform:none;writing-mode:lr-tb;direction:ltr;text-orientation:mixed;dominant-baseline:auto;baseline-shift:baseline;text-anchor:start;white-space:normal;shape-padding:0;clip-rule:nonzero;display:inline;overflow:visible;visibility:visible;opacity:1;isolation:auto;mix-blend-mode:normal;color-interpolation:sRGB;color-interpolation-filters:linearRGB;solid-color:#000000;solid-opacity:1;vector-effect:none;fill:#bebebe;fill-opacity:1;fill-rule:nonzero;stroke:none;stroke-width:1.99999988;stroke-linecap:butt;stroke-linejoin:miter;stroke-miterlimit:4;stroke-dasharray:none;stroke-dashoffset:0;stroke-opacity:1;marker:none;color-rendering:auto;image-rendering:auto;shape-rendering:auto;text-rendering:auto;enable-background:accumulate"
       d="M 291.74609 361.77148 C 283.3309 361.77148 276.50586 368.60828 276.50586 377.02344 C 276.50586 385.43857 283.3309 392.26367 291.74609 392.26367 C 300.1613 392.26367 306.99805 385.43857 306.99805 377.02344 C 306.99805 368.60828 300.1613 361.77148 291.74609 361.77148 z M 291.74609 365.58398 C 293.60187 365.58398 295.34081 366.0253 296.88281 366.79297 L 294.5293 371.58203 C 294.05335 371.40748 293.54589 371.29688 293.01172 371.29688 L 290.49414 371.29688 C 289.95932 371.29688 289.45104 371.40707 288.97461 371.58203 L 286.61719 366.79102 C 288.15616 366.02505 289.89252 365.58398 291.74609 365.58398 z M 281.49609 371.94922 L 286.28516 374.34375 C 286.13359 374.79063 286.0332 375.26171 286.0332 375.75781 L 286.0332 378.27539 C 286.0332 378.81022 286.1434 379.31849 286.31836 379.79492 L 281.53906 382.18359 C 280.76504 380.63699 280.32031 378.88955 280.32031 377.02344 C 280.32031 375.19245 280.74923 373.47598 281.49609 371.94922 z M 302.00586 371.94922 C 302.75438 373.47598 303.18555 375.19245 303.18555 377.02344 C 303.18555 378.88925 302.74033 380.63717 301.96484 382.18359 L 297.1875 379.79492 C 297.36246 379.31849 297.47266 378.81022 297.47266 378.27539 L 297.47266 375.75781 C 297.47266 375.26171 297.37227 374.79063 297.2207 374.34375 L 302.00586 371.94922 z M 290.49414 373.21094 L 293.01172 373.21094 C 294.44025 373.21094 295.55859 374.3293 295.55859 375.75781 L 295.55859 378.27539 C 295.55859 379.70394 294.44025 380.83789 293.01172 380.83789 L 290.49414 380.83789 C 289.06561 380.83789 287.93164 379.70394 287.93164 378.27539 L 287.93164 375.75781 C 287.93164 374.3293 289.06561 373.21094 290.49414 373.21094 z M 289.02539 382.4668 C 289.48779 382.63036 289.97785 382.73633 290.49414 382.73633 L 293.01172 382.73633 C 293.5265 382.73633 294.01531 382.6314 294.47656 382.46875 L 296.86719 387.25 C 295.32884 388.01136 293.5959 388.44922 291.74609 388.44922 C 289.89879 388.44922 288.16794 388.01333 286.63281 387.25391 L 289.02539 382.4668 z "
       transform="scale(0.26458333)"
       id="rect11749-5-0-3" />
    <g
       id="g11124"
       transform="translate(1.9182292,-11.1125)">
      <path
         sodipodi:nodetypes="sssssscccsscccccsccccccccsccccsssss"
         inkscape:connector-curvature="0"
         id="rect9381"
         d="m 72.140299,125.03737 c -0.609219,0 -1.099673,0.49045 -1.099673,1.09968 v 3.84885 c 0,0.60922 0.490454,1.09968 1.099673,1.09968 h 4.948535 c 0.609222,0 1.099676,-0.49046 1.099676,-1.09968 v -2.0898 l 1.649512,-1.75905 H 78.18851 c 0,-0.60923 -0.490454,-1.09968 -1.099676,-1.09968 z m 2.439904,1.09968 c 0.722452,-0.0405 1.368489,0.51469 1.408958,1.23713 -4.5e-5,0.61641 -0.169575,0.84876 -0.70448,1.25431 -0.08398,0.0632 -0.132917,0.11014 -0.154633,0.13757 -0.02172,0.0272 -0.01725,0.0187 -0.01725,0.0166 0.0033,0.23239 -0.214325,0.42957 -0.446743,0.42957 -0.232415,0 -0.432638,-0.19722 -0.429558,-0.42957 0,-0.22099 0.09863,-0.41498 0.206191,-0.54983 0.107543,-0.13487 0.209234,-0.23402 0.309283,-0.30929 0.08975,-0.0707 0.209575,-0.17269 0.309284,-0.2921 0.04113,-0.0493 0.05332,-0.13196 0.05152,-0.18911 v -0.0166 c -0.01392,-0.24775 -0.216164,-0.42628 -0.463914,-0.41238 -0.247752,0.0145 -0.446683,0.19909 -0.46788,0.41673 -0.02122,0.21774 -0.187924,0.35648 -0.394463,0.35648 -0.206545,0 -0.373262,-0.13882 -0.429561,-0.32647 -0.01455,-0.10786 -0.0094,-0.22336 0.0056,-0.29317 0.0027,-0.008 0.0033,-0.0166 0.0064,-0.0237 0.111346,-0.56308 0.59919,-0.97191 1.211339,-1.00624 z m 0.08591,3.5224 c 0.242928,0 0.446742,0.20386 0.446742,0.44673 0,0.24294 -0.203822,0.42957 -0.446742,0.42957 -0.242931,0 -0.429561,-0.18661 -0.429561,-0.42957 0,-0.24293 0.186636,-0.44673 0.429561,-0.44673 z"
         style="opacity:1;fill:#bebebe;fill-opacity:1;stroke:none;stroke-width:0.52916664;stroke-linecap:round;stroke-linejoin:round;stroke-miterlimit:4;stroke-dasharray:none;stroke-opacity:1" />
      <path
         sodipodi:nodetypes="sscsscccss"
         style="opacity:1;fill:#bebebe;fill-opacity:1;stroke:none;stroke-width:0.52916664;stroke-linecap:round;stroke-linejoin:round;stroke-miterlimit:4;stroke-dasharray:none;stroke-opacity:1"
         d="m 72.140299,122.83802 c -0.609219,0 -1.099673,0.49046 -1.099673,1.09969 v 0.3125 c 0.326081,-0.19305 0.699414,-0.3125 1.099673,-0.3125 h 4.948535 c 0.756511,0 1.402217,0.4194 1.796637,1.01591 l 0.952551,-1.01591 H 78.18851 c 0,-0.60923 -0.490454,-1.09969 -1.099676,-1.09969 z"
         id="path9419"
         inkscape:connector-curvature="0" />
    </g>
    <g
       id="g11177"
       transform="translate(16.18317,-18.241145)">
      <path
         inkscape:connector-curvature="0"
         id="path11643-3-2"
         d="m 83.05422,118.29399 v 0.82571 h 2.477109 c 0.176724,0 0.411328,0.2551 0.411328,0.41436 v 0.41134 h -2.062734 c -0.379428,0 -0.716978,0.15777 -0.929297,0.39915 -0.212319,0.24136 -0.307326,0.54654 -0.304686,0.84397 0.0027,0.29745 0.102367,0.5991 0.313826,0.83789 0.211463,0.23879 0.545265,0.3961 0.920157,0.3961 h 2.888437 v -2.88845 c 0,-0.67457 -0.543532,-1.24007 -1.237031,-1.24007 z m 0.825703,2.47711 h 2.062734 v 0.8257 h -2.062734 c -0.164221,0 -0.238969,-0.048 -0.30164,-0.11887 -0.06267,-0.0708 -0.105612,-0.18328 -0.106642,-0.2986 -0.001,-0.11528 0.03752,-0.22125 0.0975,-0.28944 0.05998,-0.0682 0.136453,-0.11887 0.310782,-0.11887 z"
         style="color:#000000;font-style:normal;font-variant:normal;font-weight:normal;font-stretch:normal;font-size:medium;line-height:normal;font-family:sans-serif;font-variant-ligatures:normal;font-variant-position:normal;font-variant-caps:normal;font-variant-numeric:normal;font-variant-alternates:normal;font-feature-settings:normal;text-indent:0;text-align:start;text-decoration:none;text-decoration-line:none;text-decoration-style:solid;text-decoration-color:#000000;letter-spacing:normal;word-spacing:normal;text-transform:none;writing-mode:lr-tb;direction:ltr;text-orientation:mixed;dominant-baseline:auto;baseline-shift:baseline;text-anchor:start;white-space:normal;shape-padding:0;clip-rule:nonzero;display:inline;overflow:visible;visibility:visible;opacity:1;isolation:auto;mix-blend-mode:normal;color-interpolation:sRGB;color-interpolation-filters:linearRGB;solid-color:#000000;solid-opacity:1;vector-effect:none;fill:#bebebe;fill-opacity:1;fill-rule:nonzero;stroke:none;stroke-width:0.52916664;stroke-linecap:butt;stroke-linejoin:miter;stroke-miterlimit:4;stroke-dasharray:none;stroke-dashoffset:0;stroke-opacity:1;marker:none;color-rendering:auto;image-rendering:auto;shape-rendering:auto;text-rendering:auto;enable-background:accumulate" />
      <path
         inkscape:connector-curvature="0"
         id="path5100"
         d="m 82.228517,122.83384 v 0.8257 h 4.951171 v -0.8257 z"
         style="color:#000000;font-style:normal;font-variant:normal;font-weight:normal;font-stretch:normal;font-size:medium;line-height:normal;font-family:sans-serif;font-variant-ligatures:normal;font-variant-position:normal;font-variant-caps:normal;font-variant-numeric:normal;font-variant-alternates:normal;font-feature-settings:normal;text-indent:0;text-align:start;text-decoration:none;text-decoration-line:none;text-decoration-style:solid;text-decoration-color:#000000;letter-spacing:normal;word-spacing:normal;text-transform:none;writing-mode:lr-tb;direction:ltr;text-orientation:mixed;dominant-baseline:auto;baseline-shift:baseline;text-anchor:start;white-space:normal;shape-padding:0;clip-rule:nonzero;display:inline;overflow:visible;visibility:visible;opacity:1;isolation:auto;mix-blend-mode:normal;color-interpolation:sRGB;color-interpolation-filters:linearRGB;solid-color:#000000;solid-opacity:1;vector-effect:none;fill:#bebebe;fill-opacity:1;fill-rule:nonzero;stroke:none;stroke-width:0.52916664;stroke-linecap:butt;stroke-linejoin:miter;stroke-miterlimit:4;stroke-dasharray:none;stroke-dashoffset:0;stroke-opacity:1;color-rendering:auto;image-rendering:auto;shape-rendering:auto;text-rendering:auto;enable-background:accumulate" />
    </g>
    <path
       style="color:#bebebe;display:inline;overflow:visible;visibility:visible;fill:#bebebe;fill-opacity:1;stroke:none;stroke-width:0.26458332;marker:none"
       d="m 98.465553,107.27876 h 3.164147 v 0.79116 h -3.164147 z"
       id="rect3825-9-8-7-9-1" />
    <path
       style="color:#bebebe;display:inline;overflow:visible;visibility:visible;fill:#bebebe;fill-opacity:1;stroke:none;stroke-width:0.26458332;marker:none"
       d="m 98.465553,108.86092 h 3.955217 v 0.79116 h -3.955217 z"
       id="rect3825-9-8-7-8-4-7" />
    <path
       style="color:#bebebe;display:inline;overflow:visible;visibility:visible;fill:#bebebe;fill-opacity:1;stroke:none;stroke-width:0.26458332;marker:none"
       d="m 98.465553,110.44306 h 1.581997 v 0.79116 h -1.581997 z"
       id="rect3825-9-8-7-8-9-9-8" />
    <text
       xml:space="preserve"
       style="font-style:normal;font-variant:normal;font-weight:normal;font-stretch:normal;font-size:8.46666622px;line-height:1em;font-family:'Source Sans Pro';-inkscape-font-specification:'Source Sans Pro';font-variant-ligatures:normal;font-variant-position:normal;font-variant-caps:normal;font-variant-numeric:normal;font-variant-alternates:normal;font-feature-settings:normal;text-indent:0;text-align:center;text-decoration:none;text-decoration-line:none;text-decoration-style:solid;text-decoration-color:#000000;letter-spacing:0px;word-spacing:0px;text-transform:none;writing-mode:lr-tb;direction:ltr;text-orientation:mixed;dominant-baseline:auto;baseline-shift:baseline;text-anchor:middle;white-space:normal;shape-padding:0;opacity:1;vector-effect:none;fill:#000000;fill-opacity:1;stroke:none;stroke-width:0;stroke-linecap:round;stroke-linejoin:round;stroke-miterlimit:4;stroke-dasharray:none;stroke-dashoffset:0;stroke-opacity:1"
       x="54.050591"
       y="146.94342"
       id="text10406-2-9-6"><tspan
         sodipodi:role="line"
         id="tspan10404-7-3-0"
         x="54.050591"
         y="146.94342"
         style="stroke-width:0">Code</tspan></text>
    <g
       id="g11238"
       transform="matrix(1.1516154,0,0,1.1516154,-9.6973107,-16.140387)"
       style="stroke-width:0.86834544">
      <path
         inkscape:connector-curvature="0"
         id="path42961"
         d="m 65.288435,140.04161 c -0.06349,0.11516 -0.123726,0.26611 -0.19017,0.38034 -0.02484,-0.002 -0.04913,-0.008 -0.07441,-0.008 -0.08791,0 -0.174648,0.0129 -0.256315,0.0331 -0.0807,-0.10128 -0.166778,-0.23763 -0.248047,-0.339 -0.0753,0.0278 -0.146121,0.0599 -0.214974,0.0992 0.02538,0.12769 0.07326,0.28338 0.09922,0.41341 -0.09075,0.0658 -0.165678,0.14076 -0.23151,0.23151 -0.130031,-0.0259 -0.285719,-0.0738 -0.413412,-0.0992 -0.0393,0.0688 -0.07143,0.13968 -0.09922,0.21498 0.101367,0.0813 0.237714,0.16734 0.338998,0.24804 -0.0202,0.0817 -0.03307,0.16841 -0.03307,0.25632 0,0.0253 0.0065,0.0496 0.0083,0.0744 -0.11423,0.0665 -0.265179,0.12669 -0.380339,0.19017 0.01356,0.0727 0.03395,0.14651 0.05788,0.21498 0.130016,-0.003 0.290908,-0.025 0.42168,-0.0248 0.04951,0.10366 0.111266,0.19945 0.190169,0.28112 -0.04552,0.12378 -0.118566,0.26686 -0.165364,0.38861 0.05633,0.0465 0.118929,0.0863 0.181901,0.12402 0.09769,-0.0847 0.205163,-0.20411 0.305924,-0.28938 0.100025,0.0456 0.208656,0.0702 0.322461,0.0827 0.04354,0.12614 0.08051,0.28789 0.124024,0.41341 0.07978,-5.3e-4 0.155257,-0.004 0.23151,-0.0165 0.02131,-0.13041 0.0292,-0.29595 0.04961,-0.42994 0.108502,-0.0309 0.214668,-0.0706 0.305925,-0.1323 0.112271,0.07 0.237825,0.1664 0.347265,0.23151 0.0592,-0.0504 0.114917,-0.10616 0.165365,-0.16536 -0.06512,-0.10944 -0.161539,-0.235 -0.23151,-0.34727 0.06165,-0.0913 0.101378,-0.19742 0.132291,-0.30592 0.133998,-0.0204 0.299531,-0.0283 0.429948,-0.0496 0.01279,-0.0763 0.01609,-0.15173 0.01654,-0.23151 -0.125525,-0.0435 -0.287269,-0.0805 -0.413412,-0.12402 -0.01249,-0.11381 -0.03703,-0.22244 -0.08268,-0.32246 0.08527,-0.10077 0.204692,-0.20824 0.289388,-0.30593 -0.03771,-0.063 -0.07754,-0.12557 -0.124024,-0.1819 -0.121747,0.0468 -0.264827,0.11985 -0.388606,0.16536 -0.08167,-0.0789 -0.177466,-0.14065 -0.28112,-0.19017 -2.35e-4,-0.13077 0.02221,-0.29166 0.02481,-0.42167 -0.06847,-0.0239 -0.142277,-0.0443 -0.214974,-0.0579 z m -0.264584,0.90123 c 0.292251,0 0.529167,0.23692 0.529167,0.52917 0,0.29225 -0.236916,0.52917 -0.529167,0.52917 -0.29225,0 -0.529166,-0.23692 -0.529166,-0.52917 0,-0.29225 0.236916,-0.52917 0.529166,-0.52917 z"
         style="color:#000000;display:inline;overflow:visible;visibility:visible;fill:#bebebe;fill-opacity:1;fill-rule:nonzero;stroke:none;stroke-width:0.22974972;marker:none;enable-background:accumulate" />
      <path
         id="path42972"
         d="m 63.25445,142.02598 c -0.06089,0.0125 -0.11745,0.0346 -0.173633,0.0579 -0.0044,0.16519 0.023,0.38147 -0.04134,0.43822 -0.06323,0.0558 -0.274732,0.009 -0.438216,-0.008 -0.03476,0.0626 -0.06225,0.12839 -0.08268,0.19844 0.126495,0.10474 0.301759,0.22199 0.305924,0.30593 0.0042,0.085 -0.165739,0.21296 -0.281119,0.33073 0.02735,0.0682 0.06618,0.13058 0.107487,0.19017 0.160952,-0.0335 0.361524,-0.0988 0.429947,-0.0496 0.06967,0.0501 0.07017,0.266 0.09095,0.42994 0.06603,0.0199 0.135601,0.0276 0.206706,0.0331 0.07444,-0.14675 0.150128,-0.3492 0.23151,-0.37207 0.08354,-0.0235 0.254938,0.12121 0.396875,0.2067 0.05787,-0.0401 0.109255,-0.0892 0.157096,-0.14056 -0.06716,-0.15142 -0.190786,-0.34182 -0.157096,-0.42168 0.03372,-0.0799 0.258076,-0.12425 0.413412,-0.1819 0.0012,-0.0195 0.0083,-0.0381 0.0083,-0.0579 0,-0.0506 -0.0091,-0.10027 -0.01654,-0.14882 -0.160366,-0.0426 -0.388201,-0.0639 -0.429951,-0.14056 -0.04147,-0.0762 0.06397,-0.28083 0.115756,-0.43822 -0.05322,-0.0472 -0.110969,-0.0892 -0.173633,-0.12402 -0.132528,0.0992 -0.286896,0.26309 -0.372071,0.24804 -0.08384,-0.0148 -0.175389,-0.21684 -0.264583,-0.35553 -0.01063,0.002 -0.02256,-0.002 -0.03307,0 z m 0.165365,0.4961 c 0.246586,0 0.446484,0.19989 0.446484,0.44648 0,0.24659 -0.199898,0.44649 -0.446484,0.44649 -0.246587,0 -0.446485,-0.1999 -0.446485,-0.44649 0,-0.24659 0.199898,-0.44648 0.446485,-0.44648 z"
         style="color:#000000;display:inline;overflow:visible;visibility:visible;fill:#bebebe;fill-opacity:1;fill-rule:nonzero;stroke:none;stroke-width:0.22974972;marker:none;enable-background:accumulate"
         inkscape:connector-curvature="0" />
    </g>
    <path
       style="color:#000000;font-style:normal;font-variant:normal;font-weight:normal;font-stretch:normal;font-size:medium;line-height:normal;font-family:Sans;-inkscape-font-specification:Sans;text-indent:0;text-align:start;text-decoration:none;text-decoration-line:none;letter-spacing:normal;word-spacing:normal;text-transform:none;writing-mode:lr-tb;direction:ltr;baseline-shift:baseline;text-anchor:start;display:inline;overflow:visible;visibility:visible;fill:#bebebe;fill-opacity:1;stroke:none;stroke-width:0.52916664;marker:none;enable-background:accumulate"
       d="m 53.865743,142.83689 h -1.040462 v -3.85519 h 1.599026 l 1.193794,1.19379 v 1.95498 l 0.700943,1.05688 v -3.16519 c -7.02e-4,-0.094 -0.04121,-0.18721 -0.109519,-0.25191 l -1.390934,-1.37997 c -0.06468,-0.0684 -0.157824,-0.10875 -0.251901,-0.10954 h -2.091876 c -0.183499,1e-5 -0.350454,0.16696 -0.350471,0.35046 v 4.20566 0.0876 0.2519 c 1.7e-5,0.1835 0.166972,0.35045 0.350471,0.35048 h 1.757832 z"
       id="path6682"
       inkscape:connector-curvature="0"
       sodipodi:nodetypes="ccccccccccccccccccc" />
    <path
       sodipodi:nodetypes="cccscccssccccssc"
       style="color:#000000;font-style:normal;font-variant:normal;font-weight:normal;font-stretch:normal;font-size:medium;line-height:normal;font-family:Sans;-inkscape-font-specification:Sans;text-indent:0;text-align:start;text-decoration:none;text-decoration-line:none;letter-spacing:normal;word-spacing:normal;text-transform:none;writing-mode:lr-tb;direction:ltr;text-anchor:start;display:inline;overflow:visible;visibility:visible;fill:#bebebe;fill-opacity:1;fill-rule:nonzero;stroke:none;stroke-width:0.79375005;marker:none;enable-background:accumulate"
       d="m 54.573661,140.68595 c -0.113851,-0.0207 -0.233729,-0.0159 -0.348383,-0.001 l 0.342026,0.60587 c 0.0704,0.12451 -0.0083,0.26735 -0.15779,0.35366 l -0.269831,0.15579 c -0.150886,0.0838 -0.318978,0.0728 -0.389258,-0.0517 l -0.341938,-0.60591 c -0.0725,0.0898 -0.138793,0.18939 -0.180194,0.29707 -0.198151,0.51541 0.08297,1.01347 0.62791,1.11245 0.113851,0.0207 0.233724,0.0159 0.348376,0.001 0.0093,-0.001 0.532156,0.96908 0.532156,0.96908 l 1.228346,0.0217 -0.934799,-1.44733 c 0.07248,-0.0898 0.129932,-0.19058 0.171335,-0.29826 0.198137,-0.5154 -0.08299,-1.01345 -0.627907,-1.11244 z"
       id="path3908-6-6"
       inkscape:connector-curvature="0" />
    <g
       id="g9281"
       inkscape:label="user-info"
       transform="matrix(0.40782771,0,0,0.40782771,128.26465,-155.35747)"
       style="stroke-width:0.64876252">
      <path
         sodipodi:nodetypes="csccssccsccc"
         inkscape:connector-curvature="0"
         id="path9219"
         d="m -50.44511,655.09373 c -0.70541,0.62353 -1.53918,0.90625 -2.55469,0.90625 -1.01551,0 -1.85318,-0.29053 -2.55859,-0.91406 -1.10938,0.36328 -2.43603,1.28775 -2.4375,2.90234 l -0.0039,3.01172 c -7.2e-4,0.554 0.446,1.00002 1,1.00002 h 6 v -5 c -0.011,-0.32734 0.3599,-0.99776 1,-1 l 1.14063,-0.004 c -0.71485,-0.60547 -1.157,-0.79019 -1.58594,-0.90236 z"
         style="fill:#bebebe;fill-opacity:1;stroke:none;stroke-width:0.64876252" />
      <path
         style="color:#bebebe;display:inline;overflow:visible;visibility:visible;fill:#bebebe;fill-opacity:1;fill-rule:nonzero;stroke:none;stroke-width:1.55703008;marker:none;enable-background:accumulate"
         d="m -49.999802,652 a 3,3 0 0 1 -3,3 3,3 0 0 1 -3,-3 3,3 0 0 1 3,-3 3,3 0 0 1 3,3 z"
         id="path9221" />
      <rect
         style="color:#bebebe;display:inline;overflow:visible;visibility:visible;fill:none;stroke:none;stroke-width:0.64876252;marker:none"
         id="rect9229"
         width="16"
         height="16"
         x="-57.999599"
         y="649" />
      <path
         inkscape:connector-curvature="0"
         style="color:#bebebe;display:inline;overflow:visible;visibility:visible;fill:#bebebe;fill-opacity:1;fill-rule:nonzero;stroke:none;stroke-width:1.29752505;marker:none;enable-background:accumulate"
         d="m -49.1246,657 c -0.49245,0 -0.875,0.38256 -0.875,0.875 v 6.25 c 0,0.49244 0.38255,0.875 0.875,0.875 h 6.25 c 0.49245,0 0.875,-0.38256 0.875,-0.875 v -6.25 c 0,-0.49244 -0.38255,-0.875 -0.875,-0.875 z m 2.125,1 h 2 v 1 h -2 z m 0,2 h 2 v 4 h -2 z"
         id="path9233"
         sodipodi:nodetypes="ccccccccccccccccccc" />
    </g>
    <path
       d="m 63.436858,21.588801 c 0,-1.099368 -0.894043,-1.990556 -1.997057,-1.990556 -0.726564,0 -1.362311,0.386806 -1.711691,0.96503 -0.349379,-0.578228 -0.985234,-0.96503 -1.711798,-0.96503 -1.103012,0 -1.997057,0.891188 -1.997057,1.990556 0,0.572045 0.242541,1.087415 0.630247,1.45049 h -5.28e-4 l 3.0333,2.91203 3.125286,-2.91203 h -0.0011 c 0.38776,-0.363023 0.630141,-0.878391 0.630141,-1.45049"
       id="path4"
       inkscape:connector-curvature="0"
       sodipodi:nodetypes="cscsscccccc"
       style="display:inline;fill:#bebebe;fill-opacity:1;stroke:none;stroke-width:0.26458332;enable-background:new" />
    <path
       style="display:inline;fill:#bebebe;fill-opacity:1;stroke:none;stroke-width:0.26458332"
       d="m 71.068038,23.275332 c -0.18664,0.164976 -0.407241,0.239779 -0.675928,0.239779 -0.268687,0 -0.490321,-0.07687 -0.676961,-0.241845 -0.293523,0.09612 -0.644533,0.340717 -0.644922,0.767911 l -0.001,0.796851 c -1.91e-4,0.146579 0.118004,0.264588 0.264583,0.264588 h 2.116667 c 0.146579,0 0.264583,-0.118009 0.264583,-0.264588 v -0.79375 c 0,-0.366903 -0.291653,-0.676223 -0.646988,-0.768946 z"
       id="path3940-5"
       inkscape:connector-curvature="0"
       sodipodi:nodetypes="csccsssscc" />
    <path
       style="color:#bebebe;display:inline;overflow:visible;visibility:visible;fill:#bebebe;fill-opacity:1;fill-rule:nonzero;stroke:none;stroke-width:0.63500005;marker:none;enable-background:accumulate"
       d="m 71.185861,22.456775 a 0.79374999,0.79374999 0 0 1 -0.79375,0.79375 0.79374999,0.79374999 0 0 1 -0.79375,-0.79375 0.79374999,0.79374999 0 0 1 0.79375,-0.79375 0.79374999,0.79374999 0 0 1 0.79375,0.79375 z"
       id="path3942-6"
       inkscape:connector-curvature="0" />
  </g>
</svg>
