<?xml version="1.0" encoding="UTF-8" standalone="no"?>
<!-- Created with Inkscape (http://www.inkscape.org/) -->

<svg
   xmlns:dc="http://purl.org/dc/elements/1.1/"
   xmlns:cc="http://creativecommons.org/ns#"
   xmlns:rdf="http://www.w3.org/1999/02/22-rdf-syntax-ns#"
   xmlns:svg="http://www.w3.org/2000/svg"
   xmlns="http://www.w3.org/2000/svg"
   xmlns:sodipodi="http://sodipodi.sourceforge.net/DTD/sodipodi-0.dtd"
   xmlns:inkscape="http://www.inkscape.org/namespaces/inkscape"
   width="210mm"
   height="297mm"
   viewBox="0 0 210 297"
   version="1.1"
   id="svg9870"
   inkscape:version="0.92.1 r"
   sodipodi:docname="many-apps.svg">
  <defs
     id="defs9864" />
  <sodipodi:namedview
     id="base"
     pagecolor="#ffffff"
     bordercolor="#666666"
     borderopacity="1.0"
     inkscape:pageopacity="0.0"
     inkscape:pageshadow="2"
     inkscape:zoom="31.678384"
     inkscape:cx="4.6950551"
     inkscape:cy="2.2653935"
     inkscape:document-units="mm"
     inkscape:current-layer="layer1"
     showgrid="false"
     inkscape:window-width="1920"
     inkscape:window-height="810"
     inkscape:window-x="0"
     inkscape:window-y="27"
     inkscape:window-maximized="0" />
  <metadata
     id="metadata9867">
    <rdf:RDF>
      <cc:Work
         rdf:about="">
        <dc:format>image/svg+xml</dc:format>
        <dc:type
           rdf:resource="http://purl.org/dc/dcmitype/StillImage" />
        <dc:title />
      </cc:Work>
    </rdf:RDF>
  </metadata>
  <g
     inkscape:label="Layer 1"
     inkscape:groupmode="layer"
     id="layer1">
    <path
       style="color:#000000;display:inline;overflow:visible;visibility:visible;fill:#bebebe;fill-opacity:1;fill-rule:nonzero;stroke:none;stroke-width:0.26458332;marker:none;enable-background:new"
       d="m 0.264583,294.35418 c 0.146579,0 0.264583,0.118 0.264583,0.26458 v 0 c 0,0.14658 -0.118004,0.26458 -0.264583,0.26458 C 0.118004,294.88334 0,294.76534 0,294.61876 v 0 c 0,-0.14658 0.118004,-0.26458 0.264583,-0.26458 z"
       id="rect9843"
       inkscape:connector-curvature="0" />
    <path
       style="color:#000000;display:inline;overflow:visible;visibility:visible;fill:#bebebe;fill-opacity:1;fill-rule:nonzero;stroke:none;stroke-width:0.26458332;marker:none;enable-background:new"
       d="m 1.322917,294.35418 c 0.14658,0 0.264584,0.118 0.264584,0.26458 v 0 c 0,0.14658 -0.118004,0.26458 -0.264584,0.26458 -0.146579,0 -0.264583,-0.118 -0.264583,-0.26458 v 0 c 0,-0.14658 0.118004,-0.26458 0.264583,-0.26458 z"
       id="rect9833"
       inkscape:connector-curvature="0" />
    <path
       style="color:#000000;display:inline;overflow:visible;visibility:visible;fill:#bebebe;fill-opacity:1;fill-rule:nonzero;stroke:none;stroke-width:0.26458332;marker:none;enable-background:new"
       d="m 2.381252,294.35418 c 0.146579,0 0.264583,0.118 0.264583,0.26458 v 0 c 0,0.14658 -0.118004,0.26458 -0.264583,0.26458 -0.14658,0 -0.264584,-0.118 -0.264584,-0.26458 v 0 c 0,-0.14658 0.118004,-0.26458 0.264584,-0.26458 z"
       id="rect9835"
       inkscape:connector-curvature="0" />
    <path
       style="color:#000000;display:inline;overflow:visible;visibility:visible;fill:#bebebe;fill-opacity:1;fill-rule:nonzero;stroke:none;stroke-width:0.26458332;marker:none;enable-background:new"
       d="m 0.264583,295.41251 c 0.146579,0 0.264583,0.118 0.264583,0.26458 v 0 c 0,0.14658 -0.118004,0.26459 -0.264583,0.26459 C 0.118004,295.94168 0,295.82367 0,295.67709 v 0 c 0,-0.14658 0.118004,-0.26458 0.264583,-0.26458 z"
       id="rect9837"
       inkscape:connector-curvature="0" />
    <path
       style="color:#000000;display:inline;overflow:visible;visibility:visible;fill:#bebebe;fill-opacity:1;fill-rule:nonzero;stroke:none;stroke-width:0.26458332;marker:none;enable-background:new"
       d="m 1.322917,295.41251 c 0.14658,0 0.264584,0.118 0.264584,0.26458 v 0 c 0,0.14658 -0.118004,0.26459 -0.264584,0.26459 -0.146579,0 -0.264583,-0.11801 -0.264583,-0.26459 v 0 c 0,-0.14658 0.118004,-0.26458 0.264583,-0.26458 z"
       id="rect9839"
       inkscape:connector-curvature="0" />
    <path
       style="color:#000000;display:inline;overflow:visible;visibility:visible;fill:#bebebe;fill-opacity:1;fill-rule:nonzero;stroke:none;stroke-width:0.26458332;marker:none;enable-background:new"
       d="m 2.381252,295.41251 c 0.146579,0 0.264583,0.118 0.264583,0.26458 v 0 c 0,0.14658 -0.118004,0.26459 -0.264583,0.26459 -0.14658,0 -0.264584,-0.11801 -0.264584,-0.26459 v 0 c 0,-0.14658 0.118004,-0.26458 0.264584,-0.26458 z"
       id="rect9841"
       inkscape:connector-curvature="0" />
    <path
       style="color:#000000;display:inline;overflow:visible;visibility:visible;fill:#bebebe;fill-opacity:1;fill-rule:nonzero;stroke:none;stroke-width:0.26458332;marker:none;enable-background:new"
       d="m 0.264583,296.47083 c 0.146579,0 0.264583,0.118 0.264583,0.26458 v 0 C 0.529166,296.88199 0.411162,297 0.264583,297 0.118004,297 0,296.88199 0,296.73541 v 0 c 0,-0.14658 0.118004,-0.26458 0.264583,-0.26458 z"
       id="rect9845"
       inkscape:connector-curvature="0" />
    <path
       style="color:#000000;display:inline;overflow:visible;visibility:visible;fill:#bebebe;fill-opacity:1;fill-rule:nonzero;stroke:none;stroke-width:0.26458332;marker:none;enable-background:new"
       d="m 1.322917,296.47083 c 0.14658,0 0.264584,0.118 0.264584,0.26458 v 0 c 0,0.14658 -0.118004,0.26459 -0.264584,0.26459 -0.146579,0 -0.264583,-0.11801 -0.264583,-0.26459 v 0 c 0,-0.14658 0.118004,-0.26458 0.264583,-0.26458 z"
       id="rect9847"
       inkscape:connector-curvature="0" />
    <path
       style="color:#000000;display:inline;overflow:visible;visibility:visible;fill:#bebebe;fill-opacity:1;fill-rule:nonzero;stroke:none;stroke-width:0.26458332;marker:none;enable-background:new"
       d="m 2.381252,296.47083 c 0.146579,0 0.264583,0.118 0.264583,0.26458 v 0 c 0,0.14658 -0.118004,0.26459 -0.264583,0.26459 -0.14658,0 -0.264584,-0.11801 -0.264584,-0.26459 v 0 c 0,-0.14658 0.118004,-0.26458 0.264584,-0.26458 z"
       id="rect9849"
       inkscape:connector-curvature="0" />
  </g>
</svg>
