<?xml version="1.0" encoding="UTF-8" standalone="no"?>
<!-- Created with Inkscape (http://www.inkscape.org/) -->

<svg
   xmlns:dc="http://purl.org/dc/elements/1.1/"
   xmlns:cc="http://creativecommons.org/ns#"
   xmlns:rdf="http://www.w3.org/1999/02/22-rdf-syntax-ns#"
   xmlns:svg="http://www.w3.org/2000/svg"
   xmlns="http://www.w3.org/2000/svg"
   xmlns:sodipodi="http://sodipodi.sourceforge.net/DTD/sodipodi-0.dtd"
   xmlns:inkscape="http://www.inkscape.org/namespaces/inkscape"
   version="1.1"
   id="svg2"
   width="38.720001"
   height="32"
   viewBox="0 0 38.720001 32"
   sodipodi:docname="meson_logo.svg"
   inkscape:version="0.92.1 r">
  <metadata
     id="metadata8">
    <rdf:RDF>
      <cc:Work
         rdf:about="">
        <dc:format>image/svg+xml</dc:format>
        <dc:type
           rdf:resource="http://purl.org/dc/dcmitype/StillImage" />
        <dc:title></dc:title>
      </cc:Work>
    </rdf:RDF>
  </metadata>
  <defs
     id="defs6" />
  <sodipodi:namedview
     pagecolor="#000000"
     bordercolor="#666666"
     borderopacity="1"
     objecttolerance="10"
     gridtolerance="10"
     guidetolerance="10"
     inkscape:pageopacity="0"
     inkscape:pageshadow="2"
     inkscape:window-width="1920"
     inkscape:window-height="1016"
     id="namedview4"
     showgrid="false"
     inkscape:zoom="7.375"
     inkscape:cx="6.2037399"
     inkscape:cy="13.453288"
     inkscape:window-x="0"
     inkscape:window-y="27"
     inkscape:window-maximized="1"
     inkscape:current-layer="svg2" />
  <path
     style="fill:#ffffff;stroke-width:1;fill-opacity:1"
     d="M 5.1923467,31.811669 C 2.6915596,31.443886 0.83264652,28.956048 0.14870335,25.061613 -0.17267384,23.231662 0.56183333,18.021007 1.9482341,12.295593 3.584203,5.5395379 4.9168462,2.1571639 6.3109272,1.2226669 8.8382953,-0.47150914 15.251924,0.05987486 16.317956,2.0517729 c 0.18531,0.346255 0.482212,2.162888 0.659781,4.036962 0.406725,4.2925751 0.898859,5.3656561 2.293526,5.0009421 0.881782,-0.230591 1.467722,-1.8032551 1.809272,-4.8560921 0.422563,-3.776951 1.497315,-5.160455 4.50541,-5.79971204 1.283995,-0.272864 2.296981,-0.279725 3.828588,-0.02593 3.519727,0.583237 4.256501,1.43930004 6.275167,7.29116304 1.655719,4.7997111 2.741341,11.0629361 2.821251,16.2764861 0.06144,4.008153 -0.670332,5.83994 -2.784678,6.970703 -1.21385,0.649173 -1.768576,0.709297 -6.544206,0.709297 -5.188477,0 -5.221406,-0.0045 -5.832885,-0.8 -0.823114,-1.070803 -0.836592,-3.233104 -0.02473,-3.967826 0.422562,-0.382413 1.464608,-0.615744 3.462943,-0.775408 3.583078,-0.286283 4.414445,-0.766639 4.707349,-2.719864 0.547817,-3.653131 -1.460868,-11.768177 -3.142818,-12.696902 -0.822776,-0.454313 -0.908442,-0.435051 -1.600816,0.359955 -0.42574,0.488849 -1.098611,2.178444 -1.609716,4.042041 -1.462065,5.330994 -2.452622,6.289965 -6.478498,6.271913 -3.764878,-0.01688 -4.633296,-0.927667 -5.3247,-5.58448 -0.250741,-1.688814 -0.65441,-3.475531 -0.897044,-3.970483 -1.465045,-2.9885671 -3.4312302,-0.845331 -4.7671563,5.196433 -1.4076691,6.366223 -0.2643065,8.758608 4.4198773,9.248202 2.687073,0.280855 3.071158,0.613727 3.090457,2.678383 0.02274,2.433011 -0.585493,2.784278 -5.10433,2.94784 -1.9359998,0.07007 -4.1354437,0.0369 -4.8876533,-0.07373 z"
     id="path7644"
     inkscape:connector-curvature="0"
     inkscape:export-xdpi="1873.7648"
     inkscape:export-ydpi="1873.7648" />
</svg>
