<?xml version="1.0" encoding="UTF-8" standalone="no"?>
<!-- Created with Inkscape (http://www.inkscape.org/) -->

<svg
   xmlns:dc="http://purl.org/dc/elements/1.1/"
   xmlns:cc="http://creativecommons.org/ns#"
   xmlns:rdf="http://www.w3.org/1999/02/22-rdf-syntax-ns#"
   xmlns:svg="http://www.w3.org/2000/svg"
   xmlns="http://www.w3.org/2000/svg"
   xmlns:sodipodi="http://sodipodi.sourceforge.net/DTD/sodipodi-0.dtd"
   xmlns:inkscape="http://www.inkscape.org/namespaces/inkscape"
   version="1.1"
   id="svg2"
   width="29.297056"
   height="29.219086"
   viewBox="0 0 29.297056 29.219086"
   sodipodi:docname="world.svg"
   inkscape:version="0.92.1 r">
  <metadata
     id="metadata8">
    <rdf:RDF>
      <cc:Work
         rdf:about="">
        <dc:format>image/svg+xml</dc:format>
        <dc:type
           rdf:resource="http://purl.org/dc/dcmitype/StillImage" />
        <dc:title></dc:title>
      </cc:Work>
    </rdf:RDF>
  </metadata>
  <defs
     id="defs6" />
  <sodipodi:namedview
     pagecolor="#ffffff"
     bordercolor="#666666"
     borderopacity="1"
     objecttolerance="10"
     gridtolerance="10"
     guidetolerance="10"
     inkscape:pageopacity="0"
     inkscape:pageshadow="2"
     inkscape:window-width="1920"
     inkscape:window-height="1016"
     id="namedview4"
     showgrid="false"
     inkscape:zoom="8.0769126"
     inkscape:cx="3.7649444"
     inkscape:cy="1.5692574"
     inkscape:window-x="0"
     inkscape:window-y="27"
     inkscape:window-maximized="1"
     inkscape:current-layer="svg2" />
  <path
     style="fill:#000000;stroke-width:1"
     d="M 14.278173,29.329674 C 10.980598,29.253664 7.7869029,28.049598 5.2434518,25.923464 4.5578075,25.350315 3.7842144,24.562192 3.2234677,23.865536 1.4898161,21.711695 0.39642743,19.081352 0.09803772,16.346753 -0.0138795,15.321085 -0.01721563,14.221378 0.08850128,13.203201 0.42514432,9.960936 1.8541691,6.91373 4.1323858,4.580152 4.821314,3.874483 5.4618238,3.326381 6.2180711,2.795373 8.8412355,0.95348901 11.944271,0.03303901 15.156239,0.14405401 c 2.540674,0.08781 4.938575,0.801976 7.109428,2.11739099 1.449875,0.878543 2.812163,2.082974 3.876652,3.427441 1.697595,2.144093 2.762556,4.730389 3.055597,7.420634 0.06439,0.591149 0.08391,0.968932 0.08391,1.623833 0,0.657291 -0.01978,1.04093 -0.08344,1.617868 -0.430043,3.897729 -2.424724,7.457453 -5.544381,9.89454 -2.234077,1.745268 -4.886765,2.781813 -7.777462,3.039061 -0.238908,0.02126 -1.192421,0.05998 -1.315736,0.05342 -0.03752,-0.002 -0.16471,-0.0059 -0.282639,-0.0086 z m 0.832696,-0.805657 c 0.579023,-0.02045 1.11604,-0.06879 1.632953,-0.147021 2.336474,-0.35359 4.539973,-1.302751 6.422331,-2.76643 0.846387,-0.658131 1.76479,-1.576382 2.417919,-2.417518 1.995483,-2.569893 3.013104,-5.71658 2.893411,-8.947005 -0.01624,-0.438221 -0.06644,-1.097183 -0.08501,-1.115748 -0.004,-0.004 -0.109616,0.107287 -0.234755,0.247254 -0.21234,0.2375 -0.264116,0.283567 -0.264116,0.234992 0,-0.01072 -0.0088,-0.01949 -0.01949,-0.01949 -0.01207,0 -0.01949,0.103828 -0.01949,0.272499 v 0.272498 l -0.294709,0.332227 c -0.28707,0.323619 -0.303245,0.338092 -0.624191,0.558495 -0.181215,0.124446 -0.334283,0.234031 -0.340148,0.243522 -0.006,0.0098 0.0363,0.01174 0.0979,0.0045 l 0.108563,-0.01276 v 0.449719 0.449719 l -0.331823,0.814336 c -0.182503,0.447885 -0.343889,0.832222 -0.358635,0.854082 -0.01475,0.02186 -0.149099,0.177672 -0.298561,0.34625 l -0.271749,0.306504 -0.208058,0.443952 -0.208058,0.443953 2.73e-4,0.793326 2.73e-4,0.793329 0.08772,0.36365 c 0.04824,0.200009 0.08772,0.376244 0.08772,0.391635 0,0.01539 -0.09292,0.132636 -0.206495,0.260547 -0.196668,0.221496 -0.220375,0.241048 -0.498204,0.410903 -0.275412,0.168379 -0.601291,0.411188 -0.601291,0.448017 0,0.0092 0.105986,0.135474 0.235522,0.280554 0.129539,0.145082 0.232605,0.271839 0.229036,0.281682 -0.0036,0.0098 -0.164375,0.155474 -0.35735,0.323623 -0.192975,0.168149 -0.361886,0.316149 -0.375359,0.328889 -0.01957,0.0185 -0.01278,0.05785 0.0337,0.195353 0.03201,0.0947 0.05181,0.182897 0.04399,0.195988 -0.0078,0.01309 -0.294347,0.34092 -0.636733,0.728508 l -0.622516,0.704706 h -0.376094 -0.376094 l -0.283386,0.175432 -0.283387,0.175431 h -0.408967 -0.408966 v -0.07797 -0.07797 h -0.155939 -0.155939 v -0.410971 c 0,-0.378505 -0.0054,-0.443567 -0.0684,-0.823554 -0.03762,-0.22692 -0.0898,-0.473982 -0.115956,-0.549028 -0.02616,-0.07505 -0.167641,-0.474152 -0.314413,-0.886904 l -0.266858,-0.750456 0.01323,-0.380102 c 0.0073,-0.209056 0.02196,-0.522606 0.03263,-0.696779 l 0.0194,-0.316679 0.106463,-0.237189 0.106463,-0.237189 -0.158665,-0.303797 -0.158666,-0.303798 0.0032,-0.36061 c 0.0018,-0.198335 0.0078,-0.404467 0.01353,-0.458071 l 0.01033,-0.09746 -0.265389,-0.297266 -0.26539,-0.297267 0.121187,-0.399098 0.121187,-0.399097 -0.07608,-0.08637 -0.07608,-0.08637 -0.345286,-0.0018 -0.345286,-0.0018 -0.0738,-0.07861 -0.0738,-0.07861 -0.146193,0.09156 c -0.08041,0.05036 -0.235642,0.146438 -0.344969,0.213509 l -0.198775,0.121948 -0.109878,-0.125152 c -0.06044,-0.06883 -0.116579,-0.125152 -0.12476,-0.125152 -0.0082,0 -0.116697,0.08772 -0.241147,0.194924 -0.12445,0.107208 -0.235126,0.194924 -0.245946,0.194924 -0.01082,0 -0.05171,0.02812 -0.09085,0.0625 l -0.07118,0.0625 -0.06107,-0.06752 c -0.03359,-0.03713 -0.385072,-0.434463 -0.781072,-0.882956 l -0.720001,-0.815441 -0.28078,-0.665836 c -0.360435,-0.854725 -0.32905,-0.756161 -0.26894,-0.84462 0.02763,-0.04066 0.05023,-0.0941 0.05023,-0.118776 0,-0.02467 0.0614,-0.136372 0.136447,-0.248226 0.07505,-0.111854 0.136447,-0.210714 0.136447,-0.219689 0,-0.009 -0.03142,-0.04655 -0.06982,-0.08349 -0.111947,-0.1077 -0.115855,-0.124302 -0.06109,-0.259556 0.137593,-0.339855 0.295665,-0.71901 0.504068,-1.209069 l 0.231251,-0.543786 0.187699,-0.231441 c 0.103234,-0.127293 0.361965,-0.434839 0.574957,-0.683436 0.212992,-0.248597 0.387258,-0.463318 0.387258,-0.477158 0,-0.01927 -0.05938,-0.02516 -0.253401,-0.02516 H 15.925279 V 10.048394 9.252167 l 0.07797,-0.03516 0.07797,-0.03516 1.97e-4,-0.177344 1.97e-4,-0.177344 0.27757,-0.144311 c 0.152664,-0.07937 0.281513,-0.147639 0.286332,-0.151705 0.0048,-0.0041 -0.0807,-0.09717 -0.190051,-0.206885 -0.109348,-0.10972 -0.198813,-0.20592 -0.198813,-0.213777 0,-0.0079 0.01754,-0.01429 0.03899,-0.01429 0.02403,0 0.03908,-0.01308 0.03924,-0.03411 1.36e-4,-0.01876 -0.0445,-0.313005 -0.09921,-0.653873 -0.05471,-0.340869 -0.09531,-0.630607 -0.09022,-0.643861 0.0051,-0.01326 0.05412,-0.0356 0.108956,-0.04965 0.114218,-0.02927 0.111021,-0.01718 0.0702,-0.265607 -0.01585,-0.09649 -0.02886,-0.184882 -0.0289,-0.196432 -3.9e-5,-0.01155 0.09628,-0.05102 0.21404,-0.08772 l 0.214114,-0.06672 3.02e-4,-0.131574 3.02e-4,-0.131574 h 0.09746 0.09746 V 5.562185 5.289292 h 0.444715 0.444714 l 0.03342,0.07009 c 0.02267,0.04754 0.04277,0.0665 0.06247,0.05894 0.04824,-0.01851 0.262222,-0.168447 0.261685,-0.183359 -2.75e-4,-0.0076 -0.01731,-0.08823 -0.03785,-0.179089 -0.02054,-0.09086 -0.03277,-0.169773 -0.02718,-0.175367 0.0056,-0.0056 0.239723,-0.160391 0.520287,-0.343992 l 0.510115,-0.33382 0.0058,-0.182792 0.0058,-0.182793 0.374283,-0.246531 c 0.205855,-0.135593 0.396212,-0.260115 0.423014,-0.276716 0.0268,-0.0166 0.30887,-0.09258 0.626816,-0.168835 l 0.578086,-0.138652 0.367295,0.129356 c 0.251113,0.08844 0.459783,0.147356 0.659681,0.18626 0.160812,0.0313 0.305477,0.05694 0.321476,0.05698 0.03397,7.8e-5 -0.237439,-0.183981 -0.595948,-0.404166 -2.320454,-1.425157 -4.994519,-2.12722599 -7.736899,-2.03130399 -0.644521,0.02254 -1.092421,0.06556 -1.734822,0.16659399 -0.458887,0.07218 -1.264649,0.24568 -1.30249,0.280465 -0.01971,0.01812 0.09853,0.214676 0.129136,0.214676 0.01215,0 0.373222,-0.09638 0.80239,-0.21417 l 0.780304,-0.214169 0.844923,-0.09523 0.844923,-0.09523 0.71186,0.27917999 c 0.391523,0.153549 0.715712,0.283032 0.72042,0.28774 0.0047,0.0047 -0.01911,0.0803 -0.05292,0.16799 -0.03382,0.08769 -0.05754,0.163379 -0.05271,0.168203 0.0048,0.0048 0.07943,0.03728 0.165788,0.07211 l 0.157016,0.06334 -0.114946,0.292046 c -0.06322,0.160626 -0.115028,0.30167 -0.11513,0.313433 -9.7e-5,0.01176 0.01642,0.02931 0.03671,0.03898 0.03429,0.01636 0.01983,0.06095 -0.20476,0.631336 -0.132911,0.337555 -0.239422,0.620436 -0.236691,0.628623 0.0027,0.0082 0.09938,-0.03818 0.214773,-0.103048 0.115395,-0.06486 0.218134,-0.112789 0.228309,-0.106501 0.02141,0.01323 0.725903,0.80724 0.747499,0.842477 0.0095,0.01555 -0.05507,0.07013 -0.190883,0.161248 -0.112911,0.07576 -0.205293,0.142672 -0.205293,0.148705 0,0.006 0.05399,0.07172 0.119986,0.145975 0.06599,0.07425 0.116429,0.138318 0.112081,0.142368 -0.02253,0.02099 -1.106667,0.732913 -1.116096,0.732913 -0.01471,0 -0.678346,-0.426073 -0.70883,-0.455089 -0.0186,-0.0177 -0.01497,-0.07939 0.0168,-0.285675 0.02229,-0.144702 0.04713,-0.26748 0.0552,-0.27284 0.01307,-0.0087 0.05994,-0.275846 0.05039,-0.287207 -0.0021,-0.0025 -0.0778,0.02686 -0.168206,0.06527 -0.370513,0.157424 -0.830837,0.333972 -1.216485,0.466559 l -0.408824,0.14057 -0.244155,0.385581 -0.244154,0.385581 -0.395353,0.223598 C 11.96948,6.382883 11.788883,6.480144 11.785596,6.476041 11.782296,6.471941 11.587439,6.089224 11.352551,5.625566 11.117663,5.161909 10.919433,4.784731 10.91204,4.787394 10.901,4.791394 10.440138,5.203048 10.105491,5.507864 L 10.026031,5.580244 9.954337,5.531524 9.882643,5.482804 V 5.658937 5.835072 H 9.822542 c -0.033056,0 -0.057178,0.0069 -0.053604,0.01527 0.00357,0.0084 0.024041,0.05652 0.045482,0.106928 0.027487,0.06462 0.047858,0.08886 0.069069,0.08216 0.022058,-0.007 0.053262,0.03801 0.116954,0.168565 0.07607,0.155938 0.109512,0.199355 0.269067,0.349371 l 0.182197,0.171303 -0.05063,0.172086 c -0.059,0.200559 -0.06089,0.220818 -0.02051,0.220818 0.03213,0 0.531901,0.456109 0.549217,0.501233 0.0057,0.01475 -0.03592,0.183671 -0.0924,0.375389 -0.09103,0.309001 -0.107885,0.349883 -0.148499,0.360076 -0.03161,0.0079 -0.100355,0.09299 -0.221706,0.274304 -0.09674,0.144542 -0.180398,0.262805 -0.185905,0.262805 -0.0055,0 -0.06885,-0.03947 -0.140767,-0.08772 C 10.068597,8.75942 9.9921196,8.72016 9.9705636,8.72043 9.9410936,8.720795 9.8447905,8.851362 9.5823809,9.246725 9.3904366,9.53592 9.2281625,9.772599 9.2217717,9.772679 9.2078557,9.772854 8.4090034,9.924173 8.3510007,9.937624 8.3263557,9.943324 8.236212,10.052655 8.1204855,10.217166 L 7.9304419,10.487328 7.599376,10.621536 c -0.1820863,0.07381 -0.3377309,0.143241 -0.345877,0.154281 -0.00815,0.01104 -0.087004,0.195506 -0.1752404,0.409922 l -0.1604294,0.389848 -0.4563836,0.379076 c -0.3309476,0.274888 -0.4589872,0.392752 -0.4658569,0.428832 -0.00521,0.02737 -0.041224,0.426934 -0.08003,0.887929 -0.038806,0.460995 -0.076708,0.854137 -0.084226,0.873649 -0.01088,0.02824 -0.074497,-0.04009 -0.311808,-0.334925 -0.1639766,-0.203721 -0.3107176,-0.38084 -0.326091,-0.393599 -0.023428,-0.01944 -0.027952,-0.01138 -0.027952,0.04979 0,0.07272 -7.817e-4,0.07202 -0.2095432,-0.187162 C 4.6484179,12.897385 4.642163,12.891288 4.5526843,12.886061 l -0.076757,-0.0045 -0.038126,0.131574 -0.038126,0.131574 H 4.0208952 3.6421151 l -0.120347,0.09259 -0.1203468,0.09259 0.2841405,0.0054 0.2841406,0.0054 -0.042867,0.325996 c -0.023577,0.179297 -0.039085,0.332574 -0.034462,0.340615 0.00462,0.008 0.1844399,0.01462 0.3995938,0.01462 h 0.3911886 l -0.010995,0.0731 c -0.03241,0.215472 -0.1344367,1.079275 -0.128104,1.084586 0.00687,0.0058 0.1971678,-0.0098 0.4411213,-0.03596 l 0.102335,-0.01099 v 0.341287 c 0,0.187708 0.00658,0.341211 0.014619,0.341117 0.00804,-9.7e-5 0.1944366,-0.158709 0.4142132,-0.352478 0.2197767,-0.19377 0.4362706,-0.382845 0.4810976,-0.420167 l 0.081504,-0.06786 0.5064339,0.370628 0.506434,0.370628 0.5892994,-0.06767 c 0.3241148,-0.03722 0.5930493,-0.06392 0.5976323,-0.05934 0.00458,0.0046 0.059205,0.142928 0.1213832,0.307433 l 0.1130504,0.2991 h 0.1720858 0.172086 l 0.1276694,0.340903 0.1276695,0.340903 0.1960061,0.04495 0.1960059,0.04495 0.1158723,0.234831 c 0.063729,0.129157 0.1290294,0.241487 0.1451106,0.249622 0.016081,0.0081 0.082445,0.02572 0.1474751,0.03909 l 0.1182362,0.0243 0.127792,0.256373 0.127792,0.256372 1.180112,0.594518 c 1.122328,0.565408 1.179763,0.596904 1.172998,0.643249 -0.0039,0.0268 -0.01143,0.08192 -0.0167,0.12249 l -0.0096,0.07376 0.223045,0.111026 c 0.174441,0.08683 0.223011,0.119607 0.22289,0.150403 -7.8e-5,0.02166 -0.03016,0.291565 -0.06683,0.599794 l -0.06668,0.56042 -0.294558,0.418194 -0.294557,0.418193 0.04993,0.555186 0.04993,0.555186 -0.25699,0.58247 -0.25699,0.582469 -0.372061,0.08278 c -0.204634,0.04553 -0.386599,0.08693 -0.404366,0.09199 -0.01777,0.0051 -0.06881,0.06523 -0.113424,0.133708 l -0.08112,0.124508 0.05982,0.136294 c 0.0329,0.07496 0.05982,0.147934 0.05982,0.162159 0,0.01423 -0.136957,0.368473 -0.304348,0.787214 l -0.304349,0.761345 -0.328712,0.114354 -0.3287111,0.114352 -0.059845,0.157503 c -0.05255,0.138302 -0.078844,0.176663 -0.2157021,0.314696 l -0.1558574,0.157195 0.058223,0.157908 0.058223,0.157909 -0.04276,0.029 c -0.041962,0.02845 -0.041001,0.02976 0.051538,0.06991 0.051864,0.0225 0.236628,0.09268 0.4105875,0.155937 1.3368821,0.486171 2.7955731,0.770551 4.2025261,0.81931 0.230498,0.008 0.427858,0.01578 0.438579,0.01731 0.01072,0.0015 0.262632,-0.0058 0.559803,-0.01629 z M 6.3618814,25.255764 c 0.049554,-0.216329 0.090098,-0.405418 0.090098,-0.420198 0,-0.01478 -0.066334,-0.175345 -0.1474102,-0.356812 L 6.1571593,24.148815 6.1827421,23.540204 6.2083249,22.931595 6.038561,22.691967 C 5.8785751,22.46614 5.8413718,22.428317 5.3926362,22.035279 L 4.9164754,21.618218 4.3928569,20.662286 C 4.1048668,20.136523 3.870336,19.701418 3.8716773,19.695387 c 0.00134,-0.006 0.061161,-0.212714 0.1329334,-0.459293 L 4.1351054,18.787769 4.0683841,18.641704 4.001663,18.495638 4.1977389,18.203125 c 0.1644935,-0.245398 0.21272,-0.335947 0.2994107,-0.562167 0.056834,-0.14831 0.098877,-0.276867 0.093429,-0.285683 -0.00545,-0.0088 -0.099804,-0.08045 -0.2096792,-0.159178 C 4.271024,17.117364 4.1504237,17.021277 4.1128981,16.98257 4.0753727,16.943863 3.9130965,16.817691 3.7522843,16.702187 3.5914721,16.586684 3.4379696,16.472093 3.4111675,16.447541 3.3775989,16.416791 3.2623646,16.375851 3.0408122,16.315964 L 2.7191878,16.229027 2.1441624,15.887434 C 1.5957816,15.561669 1.5650726,15.540328 1.4814213,15.426871 1.4040497,15.321932 1.3607116,15.288391 1.1139236,15.142455 c -0.15388011,-0.091 -0.28326082,-0.165447 -0.28751269,-0.165447 -0.0148485,0 -0.007412,0.421293 0.0122144,0.69198 0.17661369,2.435838 0.92502499,4.645173 2.25823759,6.666395 0.7703586,1.167904 1.7949328,2.287557 2.8999788,3.169092 0.1790266,0.142815 0.2507514,0.189762 0.2609192,0.170786 0.00771,-0.0144 0.054567,-0.203169 0.1041205,-0.419497 z m 14.3178946,-14.334042 0.06336,-0.07884 -0.113697,-0.128868 C 20.5669,10.643138 20.48857,10.554012 20.455368,10.515958 l -0.06037,-0.06919 -0.02735,0.05691 c -0.01772,0.03687 -0.05013,0.06343 -0.09203,0.07543 l -0.06468,0.01852 0.200781,0.201468 c 0.11043,0.110808 0.201664,0.201468 0.202742,0.201468 0.0011,0 0.03047,-0.03548 0.06532,-0.07884 z m -2.086832,-0.878321 0.396803,-0.04481 0.223597,0.05623 c 0.18995,0.04777 0.226257,0.05203 0.241275,0.02829 0.0291,-0.04599 0.02268,-0.05427 -0.08579,-0.110467 -0.0719,-0.03725 -0.153953,-0.109818 -0.265483,-0.234793 -0.110894,-0.124262 -0.171363,-0.177818 -0.193193,-0.171106 -0.01748,0.0054 -0.09318,0.02358 -0.168222,0.04047 -0.07505,0.01688 -0.150698,0.03491 -0.168116,0.04007 -0.01742,0.0052 -0.04615,0.04641 -0.06384,0.09168 -0.02787,0.0713 -0.05578,0.09664 -0.20871,0.189512 -0.191783,0.116468 -0.260909,0.18968 -0.16095,0.170462 0.03071,-0.0059 0.234393,-0.0309 0.452634,-0.05554 z m -1.86003,-2.04692 c 0.0407,-0.03712 -0.0096,-0.03697 -0.0797,2.3e-4 l -0.07494,0.03978 0.06822,-0.01171 c 0.03752,-0.0064 0.07641,-0.01918 0.08642,-0.0283 z M 10.990344,4.36567 c -0.04581,-0.09237 -0.08792,-0.167673 -0.09357,-0.167331 -0.0057,3.41e-4 -0.05702,0.04211 -0.114159,0.09283 l -0.103884,0.09221 0.1916,0.07959 c 0.105379,0.04377 0.194234,0.07758 0.197454,0.07512 0.0032,-0.0025 -0.03163,-0.08005 -0.07744,-0.17242 z m 0.13017,-0.460457 c 0.01946,-0.02151 0.03179,-0.04235 0.02739,-0.04632 -0.0044,-0.004 -0.232964,-0.161782 -0.507918,-0.350692 l -0.499916,-0.343473 -0.07729,0.0346 -0.077291,0.0346 0.0757,0.16394 c 0.04163,0.09017 0.07914,0.167378 0.08334,0.17158 0.01727,0.01727 0.880863,0.371597 0.909508,0.373164 0.0171,9.36e-4 0.04702,-0.0159 0.06648,-0.0374 z M 7.1728996,3.20848 C 7.1723499,3.14569 7.1473626,3.12629 7.1059986,3.15654 c -0.037282,0.02726 -0.037281,0.0279 1.169e-4,0.0562 0.050222,0.03799 0.067138,0.03691 0.066777,-0.0042 z"
     id="path7644"
     inkscape:connector-curvature="0" />
</svg>
